<?xml version="1.0" encoding="utf-8"?>
<!-- Generator: Adobe Illustrator 16.0.0, SVG Export Plug-In . SVG Version: 6.00 Build 0)  -->
<!DOCTYPE svg PUBLIC "-//W3C//DTD SVG 1.1//EN" "http://www.w3.org/Graphics/SVG/1.1/DTD/svg11.dtd">
<svg version="1.1"
	 id="svg2600" xmlns:dc="http://purl.org/dc/elements/1.1/" xmlns:cc="http://creativecommons.org/ns#" xmlns:rdf="http://www.w3.org/1999/02/22-rdf-syntax-ns#" xmlns:svg="http://www.w3.org/2000/svg" xmlns:sodipodi="http://sodipodi.sourceforge.net/DTD/sodipodi-0.dtd" xmlns:inkscape="http://www.inkscape.org/namespaces/inkscape" sodipodi:docname="Taiwan_ROC_political_division_map_Taitung County.svg" inkscape:version="0.47 r22583" inkscape:output_extension="org.inkscape.output.svg.inkscape" sodipodi:version="0.32"
	 xmlns="http://www.w3.org/2000/svg" xmlns:xlink="http://www.w3.org/1999/xlink" x="0px" y="0px" width="850px" height="1200px"
	 viewBox="0 0 850 1200" enable-background="new 0 0 850 1200" xml:space="preserve">
<defs>
	
	
		<inkscape:perspective  id="perspective2608" inkscape:vp_z="744.09448 : 526.18109 : 1" inkscape:vp_y="0 : 1000 : 0" inkscape:vp_x="0 : 526.18109 : 1" sodipodi:type="inkscape:persp3d" inkscape:persp3d-origin="372.04724 : 350.78739 : 1">
		</inkscape:perspective>
	
		<inkscape:perspective  id="perspective4281" inkscape:vp_z="1 : 0.5 : 1" inkscape:vp_y="0 : 1000 : 0" inkscape:vp_x="0 : 0.5 : 1" sodipodi:type="inkscape:persp3d" inkscape:persp3d-origin="0.5 : 0.33333333 : 1">
		</inkscape:perspective>
	
		<inkscape:perspective  id="perspective3999" inkscape:vp_z="1 : 0.5 : 1" inkscape:vp_y="0 : 1000 : 0" inkscape:vp_x="0 : 0.5 : 1" sodipodi:type="inkscape:persp3d" inkscape:persp3d-origin="0.5 : 0.33333333 : 1">
		</inkscape:perspective>
	
		<inkscape:perspective  id="perspective3032" inkscape:vp_z="1 : 0.5 : 1" inkscape:vp_y="0 : 1000 : 0" inkscape:vp_x="0 : 0.5 : 1" sodipodi:type="inkscape:persp3d" inkscape:persp3d-origin="0.5 : 0.33333333 : 1">
		</inkscape:perspective>
	
		<inkscape:perspective  id="perspective3233" inkscape:vp_z="744.09448 : 526.18109 : 1" inkscape:vp_y="0 : 1000 : 0" inkscape:vp_x="0 : 526.18109 : 1" sodipodi:type="inkscape:persp3d" inkscape:persp3d-origin="372.04724 : 350.78739 : 1">
		</inkscape:perspective>
	
		<inkscape:perspective  id="perspective5378" inkscape:vp_z="1 : 0.5 : 1" inkscape:vp_y="0 : 1000 : 0" inkscape:vp_x="0 : 0.5 : 1" sodipodi:type="inkscape:persp3d" inkscape:persp3d-origin="0.5 : 0.33333333 : 1">
		</inkscape:perspective>
	
		<inkscape:perspective  id="perspective5400" inkscape:vp_z="1 : 0.5 : 1" inkscape:vp_y="0 : 1000 : 0" inkscape:vp_x="0 : 0.5 : 1" sodipodi:type="inkscape:persp3d" inkscape:persp3d-origin="0.5 : 0.33333333 : 1">
		</inkscape:perspective>
	
		<inkscape:perspective  id="perspective5400-9" inkscape:vp_z="1 : 0.5 : 1" inkscape:vp_y="0 : 1000 : 0" inkscape:vp_x="0 : 0.5 : 1" sodipodi:type="inkscape:persp3d" inkscape:persp3d-origin="0.5 : 0.33333333 : 1">
		</inkscape:perspective>
	
		<inkscape:perspective  id="perspective3831" inkscape:vp_z="1 : 0.5 : 1" inkscape:vp_y="0 : 1000 : 0" inkscape:vp_x="0 : 0.5 : 1" sodipodi:type="inkscape:persp3d" inkscape:persp3d-origin="0.5 : 0.33333333 : 1">
		</inkscape:perspective>
	
		<inkscape:perspective  id="perspective2614" inkscape:vp_z="744.09448 : 526.18109 : 1" inkscape:vp_y="0 : 1000 : 0" inkscape:vp_x="0 : 526.18109 : 1" sodipodi:type="inkscape:persp3d" inkscape:persp3d-origin="372.04724 : 350.78739 : 1">
		</inkscape:perspective>
</defs>
<sodipodi:namedview  showgrid="false" inkscape:cy="774.76952" inkscape:cx="255.12293" inkscape:zoom="0.49497476" objecttolerance="10" guidetolerance="10" gridtolerance="10000" borderopacity="1.0" bordercolor="#666666" pagecolor="#ffffff" id="base" inkscape:window-maximized="1" inkscape:window-y="-8" inkscape:window-x="-8" inkscape:window-height="750" inkscape:window-width="1280" inkscape:current-layer="layer1" inkscape:document-units="px" inkscape:pageshadow="2" inkscape:pageopacity="0.0">
	</sodipodi:namedview>
<path id="Penghu_County" fill="#EEFFAA" d="M96.553,590.071v1.43V590.071L96.553,590.071z M114.41,583.642l0.715-2.5l1.964-0.714
	l-0.894,1.429l-0.535,2.321L114.41,583.642L114.41,583.642z M123.16,576.678l2.32-0.357l-0.535,1.786L123.16,576.678L123.16,576.678
	z M80.66,624.357l-0.18,2.5l2.145-0.894L80.66,624.357L80.66,624.357z M84.41,630.607l-4.285,2.321l-1.607-0.715l0.357,2.317
	l5.355-0.354l4.107-2.5l-0.357-1.25l-2.5-0.357L84.41,630.607L84.41,630.607z M77.447,585.25l-0.625,1.157l-0.179,0.808l0.804,0.894
	l-1.519,1.428l0.357,1.072l1.07,0.535l0.805,0.715l0.356,0.803l-0.893,0.447l-0.715,2.146l0.445,1.157l-1.16,0.357h-1.34
	l-1.07,0.715l0.356,0.981l1.429,0.269l1.785,2.321v1.339l-0.535,1.071l-0.981,0.715l-0.714,0.893l-0.982,0.714l-0.981,0.271
	l-1.785-1.607l-1.25,0.446l-0.895,0.715l-0.625,0.981l-1.518,1.34l-0.625,0.893l0.893,0.536h1.34l0.625-0.804h4.019l0.714-0.625
	l0.894-0.446l2.59,0.446l1.16,0.535h1.34l1.16-0.535l-0.445-1.161l-0.715-0.893l-0.357-0.982l-0.089-1.25l1.518-1.429l-1.16-2.856
	l3.66-3.304l-0.355-0.896l-0.982-0.714l-0.179-1.161l0.625-2.143l-0.536-1.16l-0.625-0.804l-0.268-1.071l0.356-0.979l0.982-0.625
	h2.678l2.322-0.625l0.98-0.625l0.18-1.342l-0.715-0.625L87,584.267l-1.072,0.268l-1.25-0.625l-2.143-2.407l0.268-1.16l-0.356-0.981
	l-1.07,0.089l-0.805,0.714l-2.231,4.107L77.447,585.25L77.447,585.25L77.447,585.25z M92.268,574.803l-0.981,0.979l0.09,1.161
	L94.41,579l0.625,1.068l0.625-0.625l0.893-2.054l0.894-0.625l2.769,0.09l0.536,1.16v1.34l0.714,0.803l0.446,0.982l2.231,2.321
	l0.446,1.25l0.893,0.179l0.805-0.982l0.179-1.339l2.231-1.25l1.34-0.179l-0.09-1.16l-1.25-1.161l-0.535-0.804l0.804-1.429
	l-1.429-0.093l-1.696-3.125l-0.714-0.179l-0.805,0.536l-2.144-0.625l-0.268-1.072l-1.34-0.178l-1.25,0.535l-0.535,1.068l-1.34,0.271
	l-2.32-0.271l-1.072-0.532l-0.268-0.625L92.268,574.803L92.268,574.803L92.268,574.803z M104.5,586.232l-1.43,1.875l1.785,1.696
	h1.34l0.981-0.625l0.09-1.25l1.696-2.058l-0.804-0.532h-1.34l-1.25,0.269L104.5,586.232L104.5,586.232z M107.803,590.157
	l-1.16,0.536l-0.356,0.982l0.356,1.067l1.071,0.535h1.339l1.25-0.268l0.357-1.16l-0.625-0.894l-1.16-0.625L107.803,590.157
	L107.803,590.157L107.803,590.157z M100.75,599l-2.947,2.5l-1.16,0.354h-1.34l0.625,1.16v1.34l-0.268,1.25l-1.785,1.521l-0.18,1.34
	L94.678,609l2.411-1.07l0.981-0.715l1.43,0.09l0.893,0.625l0.804,0.893l-2.679,2.857l-1.34,0.179l-2.678-0.449l1.518,1.697
	L98.072,614l1.606-0.182l1.161-0.714l4.018,0.089l0.805,1.071l0.445,1.161l-1.339,2.143l-0.179,0.714l1.161,0.808l-0.09,0.979
	l-1.071,1.071l-1.161-0.089l-0.803-0.715l-1.072-0.535l-1.339,0.179l-1.607,3.396l-1.518,1.604l0.625,1.071l2.589,0.268l1.429-0.179
	l1.786-0.625l1.519-0.089l1.606,1.785l1.16-0.271l0.179-1.161l1.071-0.979l0.09-1.25l0.446-1.25l-1.071-0.625l-0.179-0.982
	l0.893-0.979l0.625-1.16l4.465-3.482l1.16-0.179l2.232-2.77l0.356-1.069l0.981-0.806l6.161-0.181l1.875-0.893l0.804,0.625
	l0.269,1.339l0.625,1.161l1.07,0.714l1.25-0.271l0.982-0.535h1.429l0.535-0.806l-3.125-3.303l-0.803-2.947l0.355-1.069v-1.34
	l-0.535-1.16L127.535,599l-0.625-2.057l-0.715,0.807l-0.356,2.5l-1.25-0.182l-0.625-1.25l-0.804-0.893l0.356-0.807l0.714-0.533
	l-1.695-1.606l-1.16-0.447l-0.805,0.808l-1.695,3.125l-0.982-0.183L117,598.553l-1.52,1.518l-0.268,1.071l-0.714,0.179l-0.09-4.018
	l0.981-2.146l-1.518,0.183l-0.805,0.533l-5.179,0.896l-0.804,0.625l0.089,1.25l0.715,0.979v1.342l-0.536,0.894l-1.25,0.356
	l-0.804,0.979v2.771l-0.714,0.804l-1.339-0.625l-0.982-0.895l0.179-1.784l-1.429-0.183l-0.179-1.25l0.714-1.158l0.09-0.806
	L100.75,599L100.75,599L100.75,599z M90.482,611.767l-0.535,1.34l-0.981,0.446l-0.357,1.16l0.09,2.59l1.519,0.714l0.446,0.715
	l0.893,0.803l0.357-0.893l-0.715-0.894l1.16-1.07l-0.714-0.805l-0.268-2.856l-0.895-0.714 M92.803,619.892v1.429l4.375,0.089
	l0.536-0.803L97,619.715l-1.072-0.808l-0.535-0.803l-0.268,0.981L92.803,619.892L92.803,619.892L92.803,619.892z M107.925,548.396
	l-1.895,3.156l0.38,1.642l1.263,0.505l1.136-1.768l1.263-1.01l1.643,0.252l1.263-0.631l1.137-1.141l-4.167-2.9l-1.01,0.127
	L107.925,548.396L107.925,548.396L107.925,548.396z M20.8,657.869l-1.39,3.156l1.39,0.884l1.642-0.379l1.39-0.884v-1.263
	l-2.273-1.771L20.8,657.869L20.8,657.869z M72.318,662.924l0.885,1.894v8.713l-0.38,1.646l-1.516,0.631l0.885,1.263l5.557,0.126
	l0.379-0.884l-0.632-1.389l0.632-1.267l1.642-0.505l1.264,1.391l1.263,0.886l1.515-0.505l0.884-1.014h1.896l1.136-0.758
	l-0.505-1.642l-0.758-1.267l-1.642,0.634L82.8,673.15l-4.546-2.651l-0.505-1.39v-3.788l-1.012,0.253l-1.894-0.126L72.318,662.924
	L72.318,662.924L72.318,662.924z M82.293,703.325l0.252,1.896l1.642,0.126l-1.01-1.389L82.293,703.325L82.293,703.325z
	 M85.828,706.106l-0.506,2.021l-1.011,1.389l1.643-0.505l1.768-2.272L85.828,706.106L85.828,706.106z M125.351,707.619l-0.884,1.896
	l0.757,1.137v1.393l1.137,1.137l0.759-0.127v-1.896l1.263-1.389l0.631-1.263l-1.01-0.884l-1.896-0.131L125.351,707.619
	L125.351,707.619L125.351,707.619z M53.756,720.375l-3.157,1.138l-0.379,1.515l0.379,1.771l1.137,0.884v1.895l1.769,2.399
	l0.632,0.252l0.126-1.771l1.516-1.01l1.516-0.379l0.379-3.662l1.263-1.137l-2.524-2.021L53.756,720.375L53.756,720.375
	L53.756,720.375z"/>
<path id="path2421" sodipodi:nodetypes="cssssssssssssssssssssssssssssssssssc" fill="#EEFFAA" d="M343.074,632.326l0.505,3.283
	l3.032,3.031l-2.021,4.546l10.101,1.516l1.01,2.777l2.021,2.778l2.525,1.263l2.524-1.516l1.263-2.525l4.545-3.536l2.021,1.771
	l4.546,1.516l0.758-2.525l3.536-4.293l-2.02-2.021l-0.759-3.03l-3.029-0.758l-1.264-2.525l-2.272-1.516l-2.777,1.011l-2.021-1.769
	l-1.769-2.525l-2.524-1.263l-3.031,0.758l-7.069,5.052l-3.029-0.758L343.074,632.326L343.074,632.326L343.074,632.326z"/>
<path id="Taichung_City" fill="#EEFFAA" d="M415.625,324.531l-1.75,0.438l-0.25,2.281l-9.094,12.625l-1.906,4.654l0.25,3.813
	l-0.125,0.5l-1.25,1.625l-0.531,1.405l-2.75,1.25l-1.031,1.75l-4.656,3.155l0.125,1.375l0.5,1.156l0.125,2.125l-0.875,1.031
	l-2.407-0.78l2.781,1.281l0.5,1.25l-1,1.405l-0.906,0.75l-2.25-2.905l-0.906,0.5l-1.125,1.25l-2.156,1.155l0.125,1.75l-0.75,1.28
	l-2.781,1.625l-0.875,1.406l4.156,5.688L384.688,381l-0.875,1.279l-0.375,1.5l-1.031-1.904l0.156-1.625l-1.531,1.625l-1.5-0.125
	l-0.375-1.875l0.875-1.781l-0.125-1.75l-1.25,1.25l-2.25,6.438l1.625,1.281l0.625,1.375l0.625,0.5l0.125-0.25l1.75,1.125v1.906
	l-0.625,1.531l-3.875,5.654l-1.156,0.906l-1.5,3.781l0.094,2.029l4.438,1.971l2.156,3.404l0.344,2.313l1.063,2.688l0.375,2.688
	l3.188,3.375l-1.25,1.625l-0.156,2.5l1.25,1.594l1.781,1.25h0.531l1.438,2.313l1.969,0.904l1.594,1.25l2.156,0.531l1.938,1.063
	l10.188,2.344h2.5l1.625,1.25l0.344,0.875v5.375l1.594,2.125l1.781,1.438v2.845l-0.875,1.969l1.438,6.969l2.5,0.188l1.594,1.438
	l3.563-0.375l1.094-0.719l5.688,4.844l8.938,3.22l2.156-0.563h5.344l2.5,0.563l1.781,1.595l2.156-0.188l4.279-1.438l6.438-6.938
	l3.75-9.844l3.219-3.219l4.438-1.25l1.25-1.595l-0.345-6.595l3.75-7.5l1.625-1.094l2.313,0.719l1.063,1.625l4.656,0.875l1.594,1.438
	v5.344l1.063,0.563l0.719-1.625l1.438-1.25l0.905-1.779l1.063-4.281l1.594,1.438l0.375,0.53l2.844,1.406l2.5,0.375l2.5-0.531
	l6.063-5.188l2.344-0.346l1.406,1.25l2.344,0.531l5.156-0.188l1.78-1.063l2.688-2.688l1.969-6.25l1.438-1.438l2.5-0.531l4.279,0.531
	l1.596-1.063h4.125l3.904-1.97l1.25-1.97l1.971-1.25l1.25-1.594l1.779-1.063l1.25-1.969l0.563-2.156l1.781-0.875l10.53-0.188
	l1.438-1.25l1.25-1.969l0.688-1.97l2.5-0.188l1.25-1.594l1.625-1.063l1.97,0.875l1.25,1.438l4.28,1.25l0.875-1.781l1.813-1.063
	h2.656l4.125-1.813l1.594,1.094l2.5,0.875l1.969-0.719l1.25-2.125l0.531-2.156l2.313-3.75h0.905l3.22,2.344l1.063,1.596l4.656,1.063
	h2.654l1.096-1.594l4.813,0.531l1.25,1.25l6.438,1.779l1.78-1.438l0.875-1.781l-0.155-2.5l3.75-1.594l1.063-1.625l2.688,0.188
	l1.404-1.25l0.563-2.313l-0.906-4.656l1.25-1.969l2.313-0.875l1.625-1.063l1.781-4.125l1.438-1.595h2.656l1.781-1.25l1.438-1.78
	l2.156-4.313L658,354.25l0.875-1.971l2.313-1.25l1.25-1.438l-1.25-2.125l-1.596-1.063l-1.063-1.781l-2.156-1.094l-7.125,0.906
	l-1.813,0.906l-2.313,0.344l-1.594,1.25l-1.25,1.594l-2.688,0.375L637.813,348l-4.125-6.971h-4.813l-1.969-0.719l-2.656-2.656
	l0.875-7.154l-0.531-2.125l-0.905-1.813l-1.25-1.406l-0.375-0.219l-1.72,0.906l-0.655,1.375l-1.25,0.75l-5.813-0.125l-1.25,0.654
	l-6.531-0.25l-0.063,0.813L603,329.969l-1.969,1.594l-1.438,1.813l-0.188,2.5l-3.375,5.531v2.656l-2.156,0.563h-2.688l-1.781-2.5
	l0.906-1.438l-2.688-1.063l-1.969,0.875l-0.72,2.154l-1.25,1.781l-2.313,0.719l-4.813,6.781l-1.97,0.719h-5.344l-1.813,1.25
	l-0.688,1.971l-0.719,0.154l-1.969,2.156l-0.375,2.5l-2.125,0.531l-3.406,2.844l-2.125,0.563l-5-0.563l-4.469,1.625l-5.375,6.781
	l-2.656,0.188l-1.969-1.094l-3.221-3.031l-0.375-2.5l-1.779-1.25l-2.656-3.904l-1.625,0.344h-2.688l-1.938-0.906l-5-0.344
	l-6.095-2.156l-4.813-0.156l-2.156,0.875l-1.405,1.438v2.688l0.875,1.971l0.375,5l-0.905,1.938L501.375,373l-2.156,0.719
	l-10.344-0.344l-1.969,0.875h-5.345l-5.188-1.596l-3.219-3.029l-1.063-1.971l-1.625-1.25l-11.25-2.154l-3.375-2.846l-2.5-0.719
	l-1.438-1.969l-3.563-1.971l-1.438-1.594l-2.125-0.719l-1.25-1.594l-0.906-0.375l-3.031-0.345l-1.25-1.78l-3.219-2.156l-7.5-9.656
	h-0.344l-0.906-1.781l-4.469-1.779l-2.313-3.75l-0.375-1.971L415.625,324.531z"/>
<path id="Keelung_City" sodipodi:nodetypes="ccssssssssscssssssssssssssssssssssssssscssssssssssssssssssssssssssscssssssssssssssssssssssscsss" fill="#EEFFAA" d="
	M766.921,99.073l0.075-1.155l-1.066-1.123l0.5-3.406l-1.777,0.125l-2.375,1.5l-2.156-2l-1.906-0.155l-0.875-0.625v-2.125
	l-1.625-0.403l-0.778,1.403l-1.5,0.375l-0.375-1.5h-1.28l0.5,1.5l1.405,2.03l-1.78,2.25l-2.781,2.031l-1.25,0.125l2.281-2.156
	l-0.781-1.375v-3.155l-1.5-0.125l-1.375-0.75l-1.781-0.25l-2.03-2.028h-3.903l-1.125-0.75l0.259-1.358l-0.43-0.9l-1.811,1.152
	l-1.965,0.715l-1.071,1.606l-2.317,0.535l-1.25,1.604l-4.107,1.785l-2.5,0.18l-1.964,0.714l-1.786,1.25l-4.82,0.536v2.681
	l1.07,1.965l2.321,0.714l1.429,1.604l0.18,2.5l3.035,6.786l2.321,1.605l1.605,2.145l2.319,0.535l1.431-1.25v1.965l1.604,1.785
	l6.965,1.785l5.356,4.644l5.179,0.356l4.646-2.32l2.5-0.18l1.068-1.785l0.715-2.144L753,114.075v-4.821l-0.536-2.146l2.321-0.533
	l2.854-3.035l2.5,0.535l1.786,1.25l0.896,0.179l1.783-2.855l1.431-1.43L766.921,99.073L766.921,99.073L766.921,99.073z"/>
<path id="Pingtung_County" fill="#EEFFAA" d="M333.568,1008.142l-3.532,6.215l0.982,0.896l1.25,0.354l2.679-0.804l0.535-1.071
	l3.036-3.215l2.855-1.785l0.447-0.979l-0.269-1.071l-1.071-0.536l-0.446-0.893l-0.893-0.719l-1.25,0.094l-2.054,0.979l-0.716,0.803
	l-0.893,0.447l-0.535,0.896L333.568,1008.142L333.568,1008.142L333.568,1008.142z M495.204,1042.666l-3.03,1.011l-2.021,1.768
	l-3.282,1.263l-2.778-4.798l-3.029-0.758h-4.038l-1.267-2.777l-2.773-1.011l-2.273-1.515l-4.293,0.252l-0.505-2.272l0.758-3.283
	l1.771-1.01l-2.777-1.011l-1.01-2.525l-4.801-2.773l1.771-2.273l2.524-1.263l-0.256-7.576l-2.521-1.515l-1.264-2.525h-2.776
	l-3.788-4.041l-3.536-1.769l4.799-14.646l6.565-1.01l1.263-2.778l-0.758-3.283l-2.777-2.02l-2.521-5.305l-4.041-2.524l-0.252-3.03
	l-1.015-3.028l4.293-3.282v-3.787l-4.039-8.081l-0.506-4.293l-1.769-1.012l-1.01-3.029l0.505-3.535l2.774-5.052l-1.263-2.777
	l1.516-2.271l1.014-2.777l-0.253-3.535l1.011-2.522l2.02-2.021l0.762-3.029l1.768-2.021l0.253-1.01l4.041-5.56l0.252-3.534
	l1.771-2.271l0.253-2.524l3.279,0.507l3.535-1.77l6.063-1.264l3.031-6.313l11.107-0.506l2.021-2.271l0.252-3.535l1.769-2.021
	l0.505-9.851l2.021-2.021l-1.011-2.271v-3.788l-1.014-3.281l-2.521-1.265l-3.283-0.252l-2.778-2.524l-0.757-1.517l-1.011-8.333
	l-3.788-2.524l-2.272,0.757l-0.253-1.263l-2.521-1.264l-1.011-0.252h-3.282l-1.519,2.271l-5.051,2.524l-1.769,2.271l-2.777,1.518
	l-2.778-1.518l-6.313-7.575l-8.586-5.305h-3.788l-3.03,0.758l-3.283,4.799l-3.026,0.76l-1.015,1.011h-2.773l-2.778-1.265v-3.787
	l-1.768-2.021l-3.03-1.264l-3.03,0.758l-2.778,2.021l-3.534,0.254l-6.566,4.546l-1.263,0.505l-4.041,3.283l-0.252,1.264
	l-2.525,3.281l-2.272,1.77l-3.535,0.253l-6.063-1.517l-2.777,1.264h-3.788l-1.517-2.271l-4.545-0.253l-1.768-0.758l-2.525,1.264
	l-1.516,9.85l-1.264,2.524l-0.505,3.282l-1.263,2.775l0.252,15.151l-0.757,1.264l0.252,4.546l-1.768,6.817l-1.769,2.271
	l-2.021,6.063l-0.253,18.184l3.535,4.293l-2.777,16.415l-1.264,2.777l-2.462,2.206l-0.188,1.841l-0.75,1.125l-0.125,3.78l-0.5,1.28
	l0.75,1.75l0.125,9.095l2.906,0.25l2,1.905l-0.125,1.779l-0.875,0.25l1.78,2.375l5.031,3.688l0.906,1.25l1.375,0.625l0.625,0.125
	l-0.156-0.03l0.156,0.405l3.031,1.28l1.155,1.25l1.5,1.029l2.906,1l1.125,1l1.531,0.75l1,0.906l1.656,0.75l1.125,1l9.594,5.188
	l1.125,1.375l1.656,0.529l10.844,8.688l0.906,1.28l2,5.404l-0.375,0.781l5.438,3.655l5.813,7.313l0.5,1.531v4.78l1.78,2.905
	l0.75,3.404l-0.125,1.78l-0.5,1.5l0.125,1.531l4.031,3.404l0.875,1.25l1.281,1.03l0.75,1.25l1,3.531l3.279,3.405l-0.875,1.78v1.904
	l0.375,1.75l1.154,1.25l1.625,4.938l0.125,5.563l1,3.281v1.905l0.656,1.25l0.5,2.155l1.25,1.125l0.75,1.25l0.281,1.779l1.375,1.375
	l0.25,3.563l0.75,1.25l-0.125,1.904l-0.75,1.25l-5.188,1.5l0.25,1.655l1.781,0.375l0.5,1.28l-0.125,0.625l0.375,1.625l0.625,1.281
	l-0.625,1.25l-0.875,1l-2.531,1.53l-0.25,1.625l1,1.154l-3.78,3.531v3.655l1.53,0.875v1.904l1.25,1.125l-0.375,1.53l3.906,3.405
	l0.375,1.375l1.281,1.281l0.75,1.25l0.5,2.53l-0.875,3.029l0.125,5.938l-1.125,2.654l0.875,1.125l1.75,0.25l0.903,3.28l1,1.656
	l3.905,0.375l1.531-2.406l1.125-0.875l0.25-1.655l-0.75-3.154l0.625-1.375l1.405-0.625l2-2.156l1.279-0.625h1.875l0.5,1.375
	l4.188,2.906l0.5,0.125l2.28-0.125l1.625,0.375l0.625,1.279l1.529,0.375l1.375,0.875l1.905,0.625l1.906,0.125l3.779,3.813
	l0.125,1.75l1.875,0.625l0.905,0.781l0.625,1.25l0.125,1.75l2.655,2.53h1.875l1.28-0.875l-0.25-1.655l-1.03-0.875l-0.375-1.625
	l0.125-1.781l-0.5-1.375l-4.905-7.469v-7.313l0.5-1.405l-0.625-1.375l0.5-3.029l1-0.375l0.125-1.656l3.405-0.5l1.655-0.625
	l0.625-1.25l1.5-0.375l1.28-1.03l0.5-1.5l0.125-1.779l0.875-1l1.78-0.125l0.375-3.405l3.655-2.405l0.375-1.406l-2-2.5l-0.125-9.344
	l-1.155-1.656v-1.905l2.655-4.47l1-1.063v-1.53l-1.5-0.625l-2.03-2.156l-0.625-1.625l-0.25-4.813l0.25-0.688l0.875-0.063l0.5-0.625
	l0.72-0.5l0.313-0.721l-0.875-1.375l0.063-3.654l-0.845-1.281l0.25-0.625l0.53-0.563l0.313-0.625l0.188-0.75l-0.188-0.78v-1.875
	l-0.313-0.97l-0.405-0.563l0.063-1.125l-0.625-0.813l-0.313-0.845l0.188-1.625l1.404-1.155l0.375-0.625l0.188-0.688l0.063-1.844
	l-0.25-0.813v-0.688l0.188-0.5l-0.875-1.03l0.75-3.281l1-1.125l0.5-1.375l-1-1.155l-0.161-0.913"/>
<path id="path2531" fill="#EEFFAA" d="M670.11,93.933l-1.25,2.678l-1.25,1.25l-0.356,0.718l-1.25,1.429v2.68l-1.785,1.07
	l-0.354,2.321l0.715,2.318l1.785,1.25l5.715,0.714l3.571,3.396l1.429,2.68l0.179,8.214l-2.679,3.75l-1.785,1.606l-0.894,1.965
	l0.532,5.179l1.071,2.146l2.146-0.182l1.964-1.068l1.25-1.785l1.25-0.179l2.854,1.25l1.606,1.25l0.715,1.964v2.68l1.25,2.145
	l2.32,1.605l2.5,0.179l1.068,4.286l3.75,2.5l10,1.07l2.146-0.896h2.854l0.182-1.782l-4.82-2.321l-0.357-2.5l0.182-2.146l-1.25-4.104
	v-2.32l1.25-1.965l1.786-1.071l5,0.357l1.604-1.07l2.146-0.536l6.783,0.357l0.535-1.429l-1.604-0.718l-2.32,0.718l-3.93-1.786
	l-4.819-3.57l-0.894-1.965l1.25-1.606l-0.356-1.964l-1.43-1.43l1.071-1.25l2.318-4.82l-0.535-4.645l-7.68-6.605l0.536-2.32
	l1.429-1.605l-0.534-1.785l-2.856-2.5l-1.071-1.604l-0.179-5.181l-2.856-2.855v-2.682l0.718-1.964v-2.68l-4.646,0.354l-1.965-3.569
	l-1.429-1.606l-2.5,3.93l-1.967,0.895l-0.894,1.965l-3.75,2.145l-0.895,2.32l-1.605,1.07l-2.5,0.18l-1.965,0.896l-3.035,3.569
	l-0.895,2.32L670.11,93.933L670.11,93.933L670.11,93.933z"/>
<path id="Yilan_County" fill="#EEFFAA" d="M806.446,190.928l1.517,0.884l1.263-0.126l0.252-1.643l1.771-0.127l1.77,0.253
	l0.506,1.643l1.643,1.01l-0.632,1.014l-1.645,0.631l-3.659-0.126l-2.021-1.896L806.446,190.928L806.446,190.928L806.446,190.928z
	 M669.796,248.286l-0.467,1.154l-1.641,0.505l-3.536,0.256l-1.266,0.758l-1.769,2.396l-0.631,5.054l-2.273,3.027l-0.379,1.519
	l-0.631,1.263l-0.379,1.517l-3.409,5.306l-0.253,1.642h-1.768l-1.393,0.633l-1.137,0.884l-0.39,0.712l-0.855,0.923l0.107,0.641
	l1.138,0.759l0.631,1.392l0.127,1.768l0.505,1.391l-1.263,1.139l-0.505,0.253l-0.505,0.758l-1.267,0.758l-1.39,1.517l-0.379,1.644
	l0.632,1.263l0.126,7.323l-0.758,1.77l-1.137,1.391l-1.393,1.011l-1.643,2.523l-1.771,1.392l-0.505,1.264l-1.389-0.127l-3.409,4.925
	l-1.264,0.759l-1.896-0.379l-1.389,2.775l-1.391,0.759L626.5,317.4l-0.885,1.138l-1.518,1.264l-1.264,2.524l0.1,1.565l-0.692,1.019
	l1.44,1.688l0.894,1.784l0.536,2.145l-0.895,7.146l2.68,2.68l1.965,0.715h4.82l4.104,6.964l1.785,0.896l2.68-0.355l1.25-1.605
	l1.605-1.25l2.32-0.355l1.785-0.895l7.145-0.895l2.145,1.07l1.07,1.785l1.605,1.07l1.274,2.109l12.021,7.699h8.081l3.029,1.264
	l4.041,0.505l8.081,5.558l8.334,1.012l3.028-0.759l-3.028-2.523l0.758-3.029l3.282-0.759l2.271-1.516l2.271,1.011l2.021-1.771
	l-0.758-1.517l-2.021-1.769l0.254-3.282l2.021-0.758l4.293,3.786l4.798,1.518l4.547,3.535l9.093,3.788l7.321,0.505l8.082,4.041
	l4.129,0.499l-0.226-4.042l-0.75-1.25l0.125-3.656l2.531-4.813l0.375-1.5l1.528-2.529l0.5-10.875l0.5-1.625l0.875-1.156v-2.125
	l1-3.53l1.78-2.404l0.5-1.78l2.656-1.625l1-1.156l1.281-2.625l0.125-1.779l4.53-4.28l4.563-1.905h1.875l0.531-0.25l-1.406-0.75
	l-1-1.031l-0.75-1.25v-1.904l-2.53-1.5l-0.5-4.938l1.75-1.125l0.875-1.281l3.28-0.624l2.781-1.75l1.654-0.375l0.5-1.654l-0.125-1.5
	l-0.625-1.78l-0.125-1.781l-0.75-1.125l-0.279-3.53l0.779-1.125l-0.904-1.403l0.654-1.5h1.875l-0.25-1.406l-1-0.875l-0.25-0.5
	l1.5-0.655l-1.25,0.28l-1.779-0.655l-0.125-1.25l-2.406-2.156l0.406-1.625l1.75-0.125l1.529,0.875l0.25,1.781l1.75-0.125
	l1.529-0.781l-3.654-3.653l-3.029-1l-0.406-0.75l-0.5-0.156l-1.625-2.25l-0.125-1.28l-3.655-9.095l-0.125-3.78l-0.78-1.125
	l0.375-0.625v-2.03l-0.5-1.654l0.5-10.221l-2.904-3.154l-0.875-1.5v-1.656l-1.375-1.625l-0.625-3.405l0.125-1.78l-1.031-1
	l0.5-14.029l0.656-2.155v-1.875l1.25-2.781l-0.25-3.655l1-3.029l0.125-1.78l2.404-5.156l0.25-1.78l1.28-2.154l1.5-0.75l1-2.905
	l0.905-1.125l1.375-0.5l3.781-4.438l1.279-0.625l3.154-3.654l0.25-3.53l0.5-1.53l2.781-1.625l1.5-0.375l1.531-2.156l1.182-0.943
	l1.227-0.585l2.5-3.531l0.279-1.875l1.75-1.03l1.781-0.25l1.247-0.506l1.128-1.119l1.656-0.25l1.25-0.781l1.903-0.125l2.703-1.235
	l-3.629-0.712l-2.5,0.179l-6.25,2.321l-5.354,0.354l-6.785,4.821l-1.43,1.604H786.9l-2.322-0.894l-5.178-0.356l-1.786,1.432
	l-0.536,2.144l-0.894,1.785l4.104,5.894l-1.429,4.286l-5.895,3.932l-5.355-0.356l-2.321,0.356l-3.036,2.5l-2.5,3.214l0.536,2.318
	l-0.179,2.146l-1.431,1.785l-0.181,2.144l0.181,1.25l-2.5,0.536l-1.784,0.894l-7.5-1.069l-2.321,0.354l-1.964,1.071l-2.681,3.214
	l-4.819,2.59l-0.536,1.696l-1.785,1.606l-1.069,1.782l-2.146,0.718l-0.714,1.964l-1.606-1.785l-3.57,1.785l-10.533,1.25l1.428,1.25
	l-0.535,2.144l-2.319,1.786l-2.5-0.715l-1.784,1.071l-2.146,0.532l-0.893,1.968l0.178,2.5l-0.354,2.318l-1.966,1.606l0.356,2.5
	l1.429,1.429l0.716,2.146v2.679l-1.431,4.285l-2.319,0.354l-1.604,1.25l-1.072,1.606l-2.143,0.714l-2.682,0.18l-5.894,3.215
	l-0.536,2.5l-5.178,3.396l-4.646,0.714l-2.318,1.43L669.796,248.286L669.796,248.286L669.796,248.286z"/>
<path id="Taoyuan_City" sodipodi:nodetypes="csssssssssssssssssssssssscssssssssssssssssscssssssssssscssssssssssssssssssssssssssssssssssscssssssssssssssssscssssssssssssssscsssssssssssssssssssssssssssscssscssssssssssssssssssssssssssssssssscssssssssssssssssssssssssssssscsssscssssssssssssssssscssssssssssssssssscsssssssssssssssssscssssssssssssssssssssssscsssssssssssssssssssssssssssssssc" fill="#EEFFAA" d="
	M669.875,248.269l-0.546,1.174l-1.641,0.505l-3.536,0.256l-1.267,0.758l-1.768,2.396l-0.631,5.054l-2.273,3.027l-0.379,1.519
	l-0.631,1.263l-0.379,1.517l-3.409,5.306l-0.253,1.642h-1.77l-1.391,0.633l-1.137,0.885l-1.52,1.938l-0.757,0.458l-1.769,0.379
	l-3.661-0.505l-1.519-0.884l-1.264-1.896h-0.884l-0.758-1.011l-0.505-1.516l-1.392-0.507v-3.912l0.759-1.392l0.378-1.77
	l-1.516-0.757l-1.643-0.254l-1.265-0.76l-0.127-3.788l1.013-1.01l0.125-1.896l0.507-1.518l-0.253-1.896l-1.645-0.757h-1.896
	l-0.631-1.266l-0.254-1.77l-0.758-1.265l-1.139-0.885l-2.271-2.901l-2.901-1.392l-3.031,1.011l-1.389-0.506v-3.788l1.137-1.136
	l0.632-1.264v-3.788l-2.146-0.379l0.127-4.42l0.505-1.392l0.884-1.263l0.38-1.643l-1.264-1.266l-0.632-1.516l-1.771-0.379
	l-1.264-1.265l-1.389-0.507l-1.771-0.126l-0.507-0.758h-0.252l-1.643-0.884l-1.012-1.266l-1.517-0.885l-0.379-0.631l-0.126-1.137
	l-0.885-2.399l-1.518-0.631l-2.146-0.379v-1.896l-1.518-0.506l-3.914,1.771h-1.644l-5.684-4.545l-1.391-0.633l-1.137-1.14
	l-2.021-0.757v-1.39l-1.896-0.252l-1.77-0.635l-3.535-2.774l-0.632-0.886l-3.028-1.896l0.379-1.642l1.769-2.778l-0.505-5.556
	l-1.39-1.013l-11.743-1.011l-0.758-1.516l-0.253-1.896l1.011-0.885l-1.391-0.757l-1.263,0.884l-1.644,0.632l-1.896,0.126
	l-1.643-1.264l-2.021-0.631h-1.896l-1.265-1.392l-3.028-1.138l0.126-3.661l0.633-1.516l-1.138-3.031l-0.126-1.768l-1.771-0.126
	l-2.146-2.146l-3.66-0.254l-4.295,1.264L530,160.752l-4.293,2.524l-3.104-0.835l0.462-0.796l1.25-1.029l3.031-4.031l0.625-1.375
	l1.279-1.28l1.25-0.75l1.78-1.904v-3.655l-0.905-1.25l0.125-1.781l3.03-3.78l1.03-2.903l1.125-0.875l2.406-3.531l4.654-4.063
	l3.938-1.75l1.625-0.25l1.155-1.153l1.5-0.5l2.53-1.625l1.25-1.406l1.655-1l1.75-0.5l2.78-2.156l1.53-0.625h2l12.125-3.155
	l1.53-1.278l3.53-1.625l3.655-3.656l1.655-1.031l2.125-0.125l8.345-3.404h1.905l1-1l3.53-0.75l1.53,0.5l2.5,2l2.354,0.076
	l0.784,1.874l1.25,1.431l1.25,0.354l1.25,1.606l5,0.534l9.286,4.466l-0.536,3.569l1.966,1.785l5.181,1.25h5.354l1.25,0.896
	l1.786,2.144l0.536,2.321v0.714l-0.896,1.786l0.355,2.32l1.25,1.43l2.32,1.604l-0.896,1.605l-1.965,1.25l-1.965,0.715l2.145,1.606
	l0.181,2.144l-1.606,1.071l-2.144,0.714l-1.964,3.571l-2.856,1.965l-11.25-0.356l-1.786,0.896l-0.535,2.144l1.071,1.965l-0.536,5
	l-1.429,1.431l-0.896,1.965l1.25,2.319l2.146,0.181l1.604,1.25l-2.144,1.429l-1.25,1.43l-0.894,1.967l0.894,4.283l4.465,2.682
	l3.396,5.179l-1.25,1.606l0.354,2.144l2.68,1.785l-1.604,1.25l-4.646,0.895l-0.18,2.146l2.5,0.354l1.606-1.25l1.604,1.605
	l1.785,1.071l2.856,0.715l2.679-0.182l1.965-1.068l5.356-0.357l1.25,0.716l0.354,0.896l1.43,1.429l0.716,1.964l2.854,2.857
	l1.606,0.893l1.604,1.786l0.182,2.5l0.894,2.5l2.321,0.714v2.682l-1.606,1.068l-1.069,1.607l-3.217,2.679l-1.068,1.964l0.354,2.321
	l0.896,1.786v1.068l1.965,5l3.214,3.036l-0.535,1.964l2.5,1.07l0.181,1.786l2.5,0.714l1.43,1.966l1.965,1.431l0.535,5
	L669.875,248.269L669.875,248.269L669.875,248.269z"/>
<path id="Hsinchu_City" sodipodi:nodetypes="csssssssssssscsssssssssssssssscsssssssssssssssssscssssssssssssssssssscssssssscscsssssssssssssssssscc" fill="#EEFFAA" d="
	M492.095,228.441l0.203,1.055l1.266,0.631h2.021l1.391-0.505l1.139-0.887l1.39,0.505l1.896,2.271l0.506,1.643v1.519l4.869,1.258
	l0.687-0.5l2.021-2.397l0.381-3.66l1.263-2.904l1.642-0.378l1.014-1.519l1.516-0.632l1.137-0.885l0.506-1.515l0.887-1.393
	l5.43-1.264l-0.505-1.389l1.136-1.771l1.518-0.506h1.896l7.071,7.197l1.516-1.014v-3.785l-3.282-11.111l-1.895-2.65l-3.41-2.901
	l-3.661-0.379l-0.126-0.634l-0.506-1.011l-1.389-0.885h-1.896l-7.702-1.896l-1.895-2.649l-0.505-1.392L508,190.954l-1.028,0.771
	l-1.527,0.625l-5.063,6.969l-1.25,1.125l0.625,3.031l-0.25,1l0.5,0.53l1.906,0.125l0.25,1.625l-0.75,1.531l-0.375,3.528
	l-0.781,1.125l-0.125,3.906l-1.875,2.53l-0.5,1.531l1.375,1.125l-0.75,1l-0.625,1.778l-2.281,2.156l-1.777,1L492.095,228.441
	L492.095,228.441L492.095,228.441z"/>
<path id="Hsinchu_County" sodipodi:nodetypes="cssssssssssscssssssssssssssssssssssssssssssssssssssssssscsssssssssssscsssssssssssssssssssssssssssssssssssssssssssssssssssscsssssssssssssssscsssssssssssssssssscssssssssssssssssssscsssssssscssssssssssscssscsssssssssssssssssssssssssssscssssssssssssssscssssssssssssssssscssssssssssssssssssssssssssssssssssscssssssssssscssssssssssssssssscsssssscsssssssssssssscssssssssssssssssssc" fill="#EEFFAA" d="
	M622.031,324.936l-1.694,0.898l-0.631,1.39l-1.263,0.758l-5.813-0.126l-1.263,0.631l-5.682-0.126l-0.889-1.01l-0.126-2.146
	l0.253-1.263l-0.632-0.758v-3.788l-0.884-1.264l-1.516-0.887l-1.14-1.263l-0.632-1.517l-2.146-2.397l-0.633-1.516l-1.517-0.759
	l-0.758-1.14l-1.645-0.884l-0.505-1.263l0.253-2.904l-1.138-1.516l-3.662-0.253l-1.515,0.506l-2.651,1.769h-4.294l-1.389,0.757
	h-1.893l-1.264-1.136l-7.575-0.379l-1.391,0.505l-1.517-0.379h-1.896l-2.146,1.896l-3.408,1.39l-3.408-0.759h-5.938v-2.146
	l-0.884-1.895v-2.021l0.759-1.516l2.146-2.271l0.505-1.519l-0.126-1.895l-1.517-2.903l-2.65-2.146l2.021-3.283l1.137-4.167
	l1.137-1.392l0.126-1.769l0.885-1.263l0.38-1.645l-1.391-0.758l-1.137-3.409l-1.896-0.505l-1.391-3.157l-0.885-0.379l-2.021,0.505
	l-1.517,0.886l-2.398-1.896l-0.884-1.517l-1.644-0.38l-1.265-0.886l-2.021-3.153l-1.771-0.254l-1.769-0.759l-0.126-1.769
	l-1.138-1.265l-1.77-0.252l-3.282-2.146l-0.885-1.517l-1.391-1.392l-1.643-2.902l-0.254-1.77l-2.021-0.758l0.379-1.265l0.886-1.391
	l0.253-1.642l1.011-1.265l-1.39-0.76l0.885-1.137l-3.535,0.253l-1.264,1.01l-1.518,0.634l-0.885-1.139h-2.903l-1.516-0.758
	l-0.988-1.209l2.504-3.084l0.38-3.662l1.264-2.903l1.644-0.379l1.011-1.516l1.518-0.633l1.138-0.885l0.505-1.517l0.885-1.39
	l5.432-1.266l-0.506-1.39l1.137-1.77l1.518-0.506h1.895l7.07,7.196l1.518-1.011v-3.788l-3.282-11.11l-1.896-2.648l-3.409-2.904
	l-3.661-0.379l-0.126-0.631l-0.506-1.013l-1.391-0.885h-1.896l-7.701-1.895l-1.896-2.652l-0.506-1.389l-1.576-1.264l0.564-1.501
	l2.029-2.529l0.5-1.781l1-0.875l0.625-3.405l5.563-6.938l-0.75-1.531l-0.375-1.905l5.478-7.894l3.104,0.835l4.293-2.524l2.271,1.518
	l4.295-1.266l3.66,0.254l2.146,2.146l1.771,0.126l0.126,1.769l1.139,3.03l-0.633,1.517l-0.126,3.661l3.029,1.14l1.264,1.389h1.896
	l2.021,0.631l1.643,1.265l1.896-0.126l1.643-0.632l1.265-0.885l1.39,0.758l-1.012,0.885l0.254,1.896l0.758,1.518l11.742,1.011
	l1.391,1.011l0.505,5.556l-1.769,2.778l-0.38,1.643l3.028,1.896l0.633,0.885l3.534,2.776l1.771,0.633l1.896,0.252v1.391l2.021,0.758
	l8.207,6.313h1.643l3.914-1.769l1.517,0.505v1.896l2.146,0.379l1.516,0.633l0.885,2.397l0.127,1.137l0.38,0.633l1.516,0.885
	l1.011,1.264l1.646,0.884h0.252l0.506,0.76l1.768,0.126l1.393,0.507l1.263,1.264l1.769,0.378l0.635,1.518l1.263,1.264l-0.379,1.643
	l-0.884,1.266l-0.506,1.389l-0.129,4.42l2.146,0.38v3.787l-0.631,1.264l-1.14,1.139v3.788l1.392,0.505l3.03-1.012l2.9,1.391
	l2.273,2.904l1.137,0.884l0.757,1.263l0.253,1.771l0.634,1.263h1.851l1.644,0.757l0.254,1.896l-0.509,1.515l-0.126,1.896
	l-1.01,1.013l0.126,3.788l1.265,0.758l1.644,0.253l1.515,0.757l-0.378,1.77l-0.758,1.392v3.914l1.389,0.505l0.506,1.516l0.761,1.013
	h0.884l1.263,1.896l1.519,0.884l3.659,0.506l2.604-0.712l1.438,0.965l0.633,1.392l0.128,1.768l0.505,1.393l-1.266,1.137
	l-0.506,0.253l-0.505,0.758l-1.263,0.758l-1.392,1.519l-0.381,1.642l0.634,1.266l0.127,7.32l-0.761,1.771l-1.136,1.391l-1.39,1.01
	l-1.646,2.524l-1.768,1.391l-0.505,1.265l-1.393-0.128l-3.407,4.927l-1.265,0.758l-1.896-0.379l-1.392,2.775l-1.389,0.759
	l-1.138,2.902l-0.885,1.139l-1.518,1.265l-1.264,2.523l-0.126,1.77L622.031,324.936"/>
<path id="Miaoli_County" fill="#EEFFAA" d="M507.958,237.321l1.516,0.761h2.903l0.884,1.137l1.52-0.632l1.263-1.01l3.535-0.256
	l-0.884,1.14l1.389,0.758l-1.01,1.264l-0.253,1.645l-0.888,1.389l-0.379,1.264l2.021,0.761l0.253,1.768l1.642,2.904l1.393,1.389
	l0.884,1.519l3.283,2.146l1.768,0.252l1.137,1.264l0.126,1.771l1.771,0.757l1.769,0.253l2.021,3.156l1.263,0.884l1.645,0.379
	l0.885,1.519l2.396,1.895l1.52-0.884l2.02-0.505l0.884,0.379l1.394,3.156l1.894,0.506l1.141,3.407l1.389,0.76l-0.379,1.642
	l-0.886,1.265l-0.125,1.77l-1.14,1.389l-1.136,4.167l-2.021,3.283l2.649,2.146l1.517,2.901l0.127,1.896l-0.506,1.516L548,298.45
	l-0.758,1.519v2.021l0.884,1.896v2.146h5.935l3.409,0.758l3.409-1.39l2.146-1.896h1.896l1.515,0.38l1.394-0.506l7.573,0.379
	l1.266,1.137h1.894l1.393-0.757h4.294l2.647-1.771l1.519-0.506l3.66,0.254l1.139,1.517l-0.253,2.902l0.505,1.265l1.643,0.885
	l0.759,1.137l1.518,0.759l0.631,1.518l2.146,2.396l0.633,1.518l1.136,1.264l1.517,0.884l0.885,1.266v3.787l0.634,0.759l-0.253,1.264
	l0.1,3.868l-1.784,0.894l-1.966,1.606l-1.429,1.785l-0.181,2.5l-3.395,5.536v2.679l-2.143,0.535h-2.683l-1.784-2.5l0.896-1.431
	l-2.679-1.069l-1.967,0.894l-0.716,2.146l-1.25,1.784l-2.318,0.716l-4.82,6.784l-1.965,0.716h-5.356l-1.785,1.25l-0.715,1.965
	l-0.715,0.179l-1.964,2.146l-0.356,2.5l-2.144,0.534l-3.396,2.855l-2.145,0.536l-5-0.536l-4.464,1.605l-5.357,6.785l-2.679,0.181
	l-1.964-1.071l-3.216-3.035l-0.355-2.5l-1.786-1.25l-2.679-3.929l-1.605,0.354h-2.68l-1.965-0.895l-5-0.355l-6.071-2.145
	l-4.82-0.179l-2.144,0.894l-1.43,1.429v2.682l0.894,1.965l0.356,5l-0.896,1.964l-1.786,1.429l-2.143,0.715l-10.357-0.354
	l-1.964,0.893h-5.354l-5.182-1.604l-3.214-3.035l-1.071-1.965l-1.604-1.25l-11.25-2.146l-3.396-2.854l-2.5-0.715l-1.429-1.965
	l-3.571-1.967l-1.429-1.604l-2.144-0.715l-1.25-1.606l-0.896-0.354l-3.035-0.355l-1.25-1.786l-3.215-2.144l-7.5-9.646H427.3
	l-0.896-1.786l-4.465-1.79l-2.321-3.75l-0.355-1.967l-3.766-4.719l1.577-0.71l3.781-3.156l3.031-3.938l0.625-1.375l5.188-6.813
	l1.25-3.154l1.406-1.905l9.469-28.155l2.25-2.904l0.125-0.75l1.156-1.25l3.155-0.78l2.656,2.28l1.125,1.654l0.375-1.529l-0.375-2.03
	l2.653-1.625h1.375l1.03,0.25l-0.125-1.655l-1.655-0.75l-1.5-1.125l1-0.875l0.625-3.281l3.03-5.313l1.656-0.25l2-2.405l5.563-0.25
	l4.405-2.031h2.406l3.905,1.406l1.029,1l2.25,0.5l1.28-0.75l-0.75-1l-1.905-0.25l-1.5-0.656l-0.779-1.625l-1.75-0.25l0.125-1.779
	l1-1.125l1.529-0.75l5.53-4.688l0.531-1.625l0.875-1.156l0.375-1.5v-1.904l1.25-2.78l1.279-1.125l0.875-1.28l1.936-0.843
	l0.466,0.979l1.266,0.632h2.021l1.391-0.506l1.138-0.885l1.391,0.506l1.896,2.271l0.507,1.643v1.518l4.041,1.139L507.958,237.321
	L507.958,237.321L507.958,237.321z"/>
<path id="Changhua_County" sodipodi:nodetypes="cssssssssssssssssssssssssssscsssssscssssssssssssssssssssssssssssssssscsssscsscssssssssssssscsssssssssscssssssssssssscsssssssscssssssssssssssssscsssssssssssssscsssssssssssssssscssssssssssssssscssssssssssssscssssssssssssssc" fill="#EEFFAA" d="
	M304.538,522.437l6.313,2.271l3.787,0.257l5.813,1.769l16.162-0.758l2.777-1.011l14.647,0.252l2.525-1.266l5.051,2.778l0.757,1.263
	l4.294,0.505l8.081,4.041l6.313,1.519l7.323-0.252l3.03-0.759l30.558,5.052l5.811-1.771l2.021-1.768l1.265-2.525v-3.28l-2.021-0.508
	l-2.524,1.267h-3.279l-2.525-1.267l-7.324-7.826l0.253-2.271l1.264-2.524l-1.77-2.021l1.516-2.525l0.505-3.28l1.264-2.524
	l1.262-9.598l-0.505-2.776l0.505-2.271l-1.01-5.558l1.517-2.271l2.02-1.771l1.264-2.522l0.252-3.536l-1.263-2.776l-1.768-2.021
	l-0.505-0.254l0.252-3.787h7.575l3.995-2.267l-5.76-4.782l-1.071,0.716l-3.571,0.354L418,458.72l-2.5-0.182l-1.429-6.965
	l0.893-1.965v-2.854l-1.785-1.432l-1.606-2.144v-5.356l-0.357-0.894l-1.606-1.25h-2.5l-7.5-2.146l-2.679-0.18l-1.965-1.07
	l-2.143-0.533l-1.607-1.25l-1.964-0.896l-1.429-2.321h-0.536l-1.785-1.25l-1.25-1.604l0.179-2.5l1.25-1.607l-3.215-3.394
	l-0.354-2.681l-1.071-2.68l-0.356-2.32l-2.144-3.394l-4.424-1.973l-1.52,0.373l0.5,1.5l0.656,0.875l-1.531,0.779l-3.25,4.155
	l-0.03,0.125l-2.656,4.281l-1.25,0.779l-5.563,0.125l0.25,1.5l1.531,1.28l-0.125,3.655l-1.031,0.875l-0.625,1.375l-0.375,1.781
	l-0.875,1.25l-0.125,3.813l-0.125,0.375l-1.03,1.5v1.905l0.625,1.25l-0.25,1.906l-1.375,1.25l-3.031,1.154l-0.75,1.75l-2.281,2.404
	l-0.25,3.531l-0.625,1.406l-2.656,0.5l-1.405,1.125l-1.625,0.25l-2.406,1.779l-1.375,0.5l-0.375,1.625l-4.063,3.029l-0.75,3.031
	v2.155l-0.875,1.53l-0.25,1.625l-1.28,0.875l-0.625,3.279l-2.406,0.156l-1.875-0.406l-1.406,1.156l-1,4.905l0.375,1.155h3.781V480
	l-4.781,7.188l-0.25-0.125l-0.406,2.031l-0.875,1.125l-0.375,1.531l-1,1l-1.28,4.813l-2.125,2.375l-0.531,1.844l-1.875,2.531
	l-0.625,1.5l-0.906,1.031l-0.25,2.188l-1.25,0.656l-1.125,1l-1.406,0.75l-0.875,1.281l-1.405,0.75v1.375l0.905,1.281l-0.655,0.5
	h-1.875l-0.875,1.25l-0.281,3.652l-0.375,1.031"/>
<path id="Yunlin_County" sodipodi:nodetypes="csssssssssssssssssscssssssssssssssscsssssscssssssssssssssssssssssssssscssssssssssssscsssssssssssssssssssscsssssssssssssssssssssssssssssssssssssssssssssssssssscssssssssssssssssssssssssssssssssssssssssssssssscssssssssssssssssssssssssssssssc" fill="#EEFFAA" d="
	M445.96,595.927v-3.03l-2.271-2.021l-3.281-0.505l-1.012,2.777l-2.776,0.506l-3.282-0.758l-0.758,3.03l-3.03,0.505l-3.536-0.252
	l-2.271-1.52l-1.52-2.773l-0.757-3.031l-4.799,3.536l-0.252-7.324l2.021-5.808l0.253-0.253l1.768-4.041l0.505-3.282l-0.252-3.536
	l-1.516-2.525l-0.252-7.319l0.757-3.03l2.777,0.505l0.506-7.071l-5.052-10.855l-20.708-3.03l-3.788-1.516l-2.021-0.253
	l-10.354,1.011l-14.395-5.558l-4.294-0.507l-0.757-1.263l-5.051-2.778l-2.525,1.266l-14.647-0.252l-7.575,2.021l-11.364-0.253
	l-5.81-1.769l-3.787-0.254l-6.445-2.204l-3.912,0.065l-1.25-0.654l-1.406-0.25l-0.5,1.529l-1.75,0.125l-6.063,10.846l-0.125,0.654
	l-2.156-0.125l-1.281,0.75l-2,2.406l-0.625,1.625l-0.25,3.781l-1.03,1.152l-0.25,1.625l1.655,2.406l-0.25,1.781l-1.655,2.375
	l-3.156,0.125l-0.375,1.531v1.875l-2.156,1.152v2.406l-0.125-0.125l-0.5,0.25l-0.375,1.625v1.906l0.5,1.375l1.906,0.125l1.375,2.031
	l-2.281,2.777l-1.375,2.781l-0.375,1.5l-1.906,3.156l-1,3.531l-1.28,1.902l-2.625,7.438l0.25,7.469l-0.375,1.5l0.125,1.406
	l1.75,0.875l-0.125,1.656l-1.5,0.625l-2.156,1.625l0.5,2.152l1.125,0.625l1.531,0.25l0.125,1.906l-1,1.25v3.781l1.25,0.905
	l2.03,2.778l1.375,1.125l-1.25,0.75l-0.905,1.656l-1.75,0.125l-0.5-1.406l-1.031-0.875l-1.5,0.875l-2.215,2.533l3.854,0.13
	l5.81,2.272h3.788l1.516,2.271h3.788l2.777-1.263l6.313,2.271l3.788,0.506l2.271-1.77l1.77-2.271l0.252-3.535l-0.758-3.029
	l2.021-2.021h3.283v3.281l3.535,1.266l1.011-2.776l4.798-2.778l0.758-3.533l1.77-2.021l6.313-2.525l2.778,1.519l1.768-6.063
	l1.516-2.521l4.041,0.253l2.523-1.266l1.011-3.028l5.809-1.771l1.011-2.774l2.272-1.771l1.768-2.271l2.778,1.264l2.271,1.768
	l2.778,1.014l5.809-2.272h7.575l5.305-2.775l5.051,1.265l1.516,5.051l4.293,3.535l1.516,2.271l2.524,1.52l3.536,0.253l2.272,1.768
	l3.029,1.013l13.891,1.517l2.777-1.517l1.771-2.021l5.556,0.253l-0.505,3.788l2.021,3.283l2.021-2.021l3.282-0.758l2.021,2.021
	l3.03-0.254l2.778-1.013l3.533,0.253l2.776,1.519l3.535,0.505l1.263-2.525V603.5l-0.757-3.03l-1.516-2.273L445.96,595.927
	L445.96,595.927L445.96,595.927z"/>
<path id="Hualien_County" sodipodi:nodetypes="csssssssssssscsssscssssssscsssssssssssssssssssssssssssssscsssssscssssssscsssssssssscsssssscsscssssssssssssssssscsssssssssssssssscssssssssssssssssssssssssssscssssssssssssssssssssscssssssssssscsssssssssssscssssssscsssssssssssscssssssssssssssssssssssssssscssssssssssssssssssssssssssssssssssssssccsssssssssssssssscsssssssssssssssssssssssssssssssssssssssssssssssssssssssssssssssscssssssssssssssssssssssssssssssssssssssssssssssssssssssssssssssssscsssssssssssssssssssssssssssssssssssssssssssscssssssssssssssssssssc" fill="#EEFFAA" d="
	M675.337,654.954l-3.354-0.943l-2.273-1.771l-3.03-0.758h-3.787l-2.774,1.01l-4.294,3.536l-7.324,13.132l-0.253,0.253l0.506,4.547
	l2.021,2.271l3.28,1.769v0.255l-12.122,18.436l-0.505,8.839l-1.768,2.272l-2.272,1.516l-1.263,2.525l-1.516,6.061l-2.272,1.771
	v3.787l-1.516,2.775l-0.252,2.778l-3.031,5.809l-4.293,3.535l-1.01,2.778l0.758,3.534v11.361l-1.014,2.777l-9.85,1.516l-2.522,1.771
	l-2.021-0.252l-0.253-3.536l-1.768-3.283l-2.021-1.769L599,753.005l-1.011-0.761l-1.771-2.271l-3.026-1.011l-2.525-1.519v-2.774
	l-3.788-5.307v-4.293l-1.263-2.775l-1.771-2.271l-5.051-3.283l-5.304,2.525l-0.505,1.263h-1.015l-2.773-1.263l-1.266-2.525
	l-3.533-4.04l-3.535-0.253l-5.306-3.281h-4.294l-1.264-2.523l-0.757-0.758l-3.788-9.092l0.252-3.788l-3.788-4.801l-0.758-2.521
	l0.758-3.03l-0.252-3.536l-15.405-10.604l-3.027-0.758l1.011-3.535l1.769-2.524l3.282-1.012l-0.505-2.271l1.516-2.271l3.283-0.507
	l1.515-2.271v-7.07l-2.271-1.516l-0.506-1.643l1.264-1.14l3.03-0.758l3.028-2.021l3.028-0.758l0.759-3.535l-1.012-3.029l-2.271-1.77
	l1.769-2.021l0.759-3.283l2.021-2.271l2.271-1.519l0.758-3.027l2.271-1.518l3.536,0.252l2.774-1.263h3.788l1.266-0.506l2.522,1.517
	l3.03,0.758l4.798-4.039v-7.575l0.759-3.029l2.271-1.518l-2.271-6.313l2.524-1.264l3.788,1.011l2.775-1.264l1.518-2.271l3.282-1.517
	l4.546-0.252l3.788-8.334l1.263-10.354l1.267-2.526v-3.787l2.021-5.56v-9.344l-2.524-2.271l-0.253-3.534l0.76-2.776l-8.081-5.812
	l0.254-3.533l3.28-0.76l3.029-2.271v-1.516l-0.758-3.03l0.505-3.535l2.273-1.516l1.01-3.283l0.253-3.787l1.01-3.03l2.021-2.522
	l0.252-3.788l2.271-2.272l3.03-0.758l-0.505-5.557l-1.77-3.03l4.294-3.788l-0.255-3.029l-1.011-3.28v-3.788l0.759-2.021v-7.576
	l-2.021-2.522l-1.011-0.253v-3.535l6.062-12.88l0.252-7.323l2.273-2.271l2.522-1.264l1.518-2.522l2.522-1.266l2.021-3.535
	l0.758-2.522l0.252-3.536l-1.515-2.271l-3.535-0.505l-1.011-2.775l-1.771-2.021l-3.787-1.263l-0.759-1.011l-0.252-6.313l2.777-6.563
	l3.027-0.76l2.021-1.769l2.777-1.263l3.787-3.788h3.788l1.517-2.272l-1.75-5.597l1.992-1.549l0.894-1.785l-0.179-2.5l3.75-1.607
	l1.069-1.604l2.681,0.179l1.429-1.25l0.536-2.321l-0.896-4.643l1.25-1.965l2.321-0.896l1.604-1.068l1.785-4.106l1.431-1.605h2.68
	l1.784-1.25l1.43-1.783l2.145-4.286l0.716-7.321l0.894-1.964l2.32-1.25l1.275-1.461l12.021,7.7h8.081l3.029,1.263l4.041,0.505
	l8.081,5.557l8.334,1.013l3.028-0.76l-3.028-2.522l0.757-3.03l3.282-0.758l2.271-1.516l2.271,1.011l2.021-1.771l-0.758-1.516
	l-2.021-1.768l0.254-3.283l2.021-0.758l4.293,3.787l4.798,1.517l4.547,3.535l9.092,3.788l7.322,0.505l8.082,4.041l4.153,0.493
	l-0.125,1.272l-0.625,1.25l-1.5,0.656l-0.905,1.5l-2.25,2.031l-2.656,3.902l-0.125,5.563l-1.154,0.875l-1.125,2.656l-1.5,0.625
	l-0.78,1.902l-0.25,0.125l-3.531,0.375l-3.03,5.438l-1.25,1l-1.654,0.25l-3.28,2.906l-1.5,0.375l-0.906,1.125l-1.25,0.777
	l-3.905,5.281l-1.029,3.281v5.688l2.404,4.313l-0.75,0.75l-0.5,5.188l-0.25,0.5l-0.375-0.25l-1.404,2.438l-1.375,0.469l-3.221,3.72
	l-1.529,0.813l-4.346,4.688l-0.625,1.375l0.125,11.875l0.625,1.25l0.5,3.28l7.188,7.47v1.875l-1,3.405l-1.406-0.375l-0.375,1.656
	l0.656,1.25l-1.531,0.5l-1.125,2.53h1.625l-0.75,3.029l-1.905,0.125l-0.75-1.125h-1.5l-1.029,0.875l-0.625,1.655l-1.125,1.125
	l-1.03,3.031l1.405,3.028l0.125,5.563l-1,3.406l-0.125,5.278l-0.53,1.656l-0.125,5.563l-0.625,1.25l-0.375,3.403l-1.906,4.313v1.875
	l-0.625,1.406l-0.25,1.625l-1.875,3.938l-0.28,1.75l-3.279,4.813l-0.625,2.125v10.5l0.5,1.375l-1.375,6.438l-3.53,5.438
	l-1.656,1.125v1.778l-0.625,1.375l-0.125,1.781l0.875,0.625l0.75,2.53l-0.875,1.125l-0.25,1.656l-0.625,1.25l-0.875,6.938
	l-0.905,1.03l0.125,1.25l0.78,1.156l-1.03,1.125l-1.5,0.625l-0.5,3.403l-1.279,1.531l-0.125,12.75l-0.875,1.75l-0.125,3.938
	l-0.875,3.028l-1.405,1.25l-0.375,1.656l-1.625,2.375l-0.156,1.905l-1.25,3.28l-0.125,3.654l-0.875,1.406l-0.25,2.125l0.5,0.375
	l0.625,1.655v3.78l1.656,2.529l-0.125,3.656l-0.531,1.53l-1,1.125l-1.5,0.625l-1.78,0.125l0.375,0.5l1.655,1.03l-0.78,1.5v1.904
	l-0.875,3.281v1.905l-0.625,1.5L675.337,654.954L675.337,654.954L675.337,654.954z"/>
<path id="Nantou_County" sodipodi:nodetypes="csssssssssssssscsssssssssssssssssscsssssssssscsssssssssssssssssssssscsscsssscsssssssssssssssscssssssssssssssssssssssssssscssssssssssssssssssssscssssssssssscsssssssssssscssssssscsssssssssssscsssssssssssscssssssssssssssssssssssssssssssssssscssssssssssssssssssssssssscssssssssssssssssssssssssssssssssssssssssssssssssccsssscsssssssssssssssssssssssssssssssssz" fill="#EEFFAA" d="
	M417.926,537.843l5.052,10.855l-0.505,7.071l-2.778-0.505l-0.757,3.03l0.252,7.319l1.516,2.525l0.252,3.536l-1.515,6.061
	l-0.758,1.267l-0.253,0.253l-2.021,5.808l0.252,7.324l4.799-3.536l0.757,3.031l1.52,2.773l2.271,1.52l3.536,0.252l3.03-0.505
	l0.758-3.03l3.282,0.758l2.775-0.506l1.013-2.777l3.281,0.508l2.271,2.021l0.096,3.015l6.474-0.739l11.614,4.293h3.788l3.282,0.759
	l1.263,2.521l0.253,8.587l-0.759,3.282l-2.773,2.273v3.788l1.515,2.521l2.273,2.021l0.505,7.319l2.521,5.813l2.021,2.271
	l11.364,1.267l5.556-2.272l11.11,1.011l2.775,1.014l11.869,0.757l6.313,2.271h0.506l2.521,1.771l1.266,6.313l1.011,0.508
	l1.264-1.267l3.03-0.758l3.03-2.021l3.027-0.761l0.759-3.532l-1.012-3.03l-2.271-1.771l1.769-2.021l0.758-3.283l2.021-2.271
	l2.271-1.517l0.759-3.03l2.271-1.515l3.536,0.252l2.775-1.263h3.788l1.265-0.505l2.523,1.516l3.029,0.757l4.799-4.04v-7.575
	l0.759-3.027l2.271-1.52l-2.271-6.313l2.523-1.265l3.788,1.012l2.776-1.267l1.517-2.271l3.283-1.518l4.545-0.252l3.788-8.334
	l1.263-10.354l1.265-2.525v-3.787l2.021-5.558v-9.344l-2.523-2.272l-0.253-3.535l0.758-2.774l-8.08-5.813l0.253-3.531l3.282-0.762
	l3.029-2.271v-1.518l-0.759-3.027l0.505-3.536l2.272-1.517l1.011-3.281l0.253-3.788l1.011-3.03l2.021-2.524l0.253-3.787l2.271-2.271
	l3.029-0.757l-0.505-5.56l-1.77-3.027l4.293-3.788l-0.253-3.03l-1.011-3.283v-3.786l0.759-2.021v-7.576l-2.021-2.522l-1.012-0.253
	v-3.535l6.063-12.88l0.252-7.322l2.271-2.273l2.524-1.263l1.516-2.525l2.523-1.263l2.021-3.535l0.76-2.522l0.252-3.535l-1.517-2.272
	l-3.534-0.505l-1.013-2.777l-1.769-2.021l-3.788-1.264l-0.758-1.014l-0.252-6.313l2.774-6.565l3.03-0.757l2.021-1.77l2.777-1.266
	l3.788-3.786h3.788l1.516-2.271l-1.719-5.636l-1.433-0.796l-4.821-1.07l-1.25-1.25l-4.82-0.536l-1.069,1.606l-5.181-0.356
	l-2.145-0.714l-1.069-1.606l-3.216-2.318h-0.894l-2.321,3.75l-0.535,2.144l-1.25,2.146l-1.965,0.715l-2.5-0.896l-1.605-1.069
	l-4.104,1.783h-2.68l-1.786,1.071l-0.894,1.785l-4.286-1.25l-1.25-1.429l-1.964-0.896l-1.606,1.07l-1.25,1.604l-2.5,0.181
	l-0.714,1.965l-1.25,1.965l-1.43,1.25l-10.536,0.179l-1.784,0.896l-0.536,2.145l-1.25,1.964l-1.784,1.071l-1.25,1.606l-1.966,1.25
	l-1.25,1.964l-3.93,1.965h-4.104l-1.605,1.071l-4.286-0.536l-2.5,0.536l-1.43,1.429l-1.964,6.251l-2.681,2.679l-1.784,1.071
	l-5.18,0.179l-2.32-0.536l-1.43-1.25l-2.32,0.357l-6.071,5.179l-2.5,0.535l-2.5-0.354l-2.854-1.432l-0.355-0.536l-1.605-1.429
	l-1.07,4.286l-0.895,1.785l-1.43,1.25l-0.714,1.604l-1.069-0.538v-5.354l-1.605-1.43l-4.645-0.896l-1.07-1.604l-2.32-0.716
	l-1.605,1.07l-3.75,7.5l0.355,6.607l-1.25,1.604l-4.465,1.25l-3.215,3.215l-3.75,9.821l-6.43,6.964l-4.284,1.43l-2.145,0.182
	l-1.786-1.607l-2.5-0.534h-5.355l-2.145,0.534l-9.009-3.301l-3.869,2.313h-7.576l-0.252,3.787l0.505,0.254l1.768,2.021l1.264,2.776
	l-0.252,3.534l-1.266,2.524l-2.02,1.77l-1.516,2.271l1.01,5.556l-0.505,2.273l0.505,2.775l-1.263,9.599l-1.264,2.522l-0.505,3.282
	l-1.515,2.525l1.768,2.021l-1.263,2.525l-0.253,2.271l7.323,7.827l2.524,1.267h3.282l2.522-1.267l2.021,0.507v3.281l-1.264,2.525
	l-2.021,1.769l-5.809,1.771L417.926,537.843L417.926,537.843L417.926,537.843z"/>
<path id="Taitung_County" fill="#EEFFAA" d="M668.339,901.321V904l2.32,1.604l0.714,2.5v2.678l1.072,1.25l2.5,0.357l2.5,3.036
	l2.5,0.714l1.784-0.357L679.947,914l-0.182-2.146l2.855-4.104v-2.682l-0.534-2.318l-1.605-1.25l-2.681,0.18l-2.319-1.071
	l-5.181,0.896L668.339,901.321L668.339,901.321L668.339,901.321z M698.159,1115.965l1.43,1.965l1.606,1.429h2.678l2.5,0.535
	l1.25-0.357l0.716-1.964l1.25-1.607l0.356-2.317l-2.322-1.071l-1.605-1.605l-1.965-0.533l-4.285-3.75l-0.715-1.967l0.182-2.5
	l2.5-0.181l-0.182-2.143l-1.43-1.433l-0.355-2.317l1.25-1.433l-1.068-1.604l-9.822,0.178l-1.965,0.713h-5.356l-1.604-1.067
	l-1.606,0.354v1.786l1.964,1.25v7.857l1.07,1.604l2.5,0.896l5,6.25h5.357l2.143,1.429L698.159,1115.965L698.159,1115.965
	L698.159,1115.965z M675.238,655.014l-2.244,6.81v1.906l-1.406,0.875l-1.75,6.969l-0.125,5.781l-1.78,3.813l0.125,5.528
	l-1.125,5.563l-1.528,1.027h-1.875l-1.531,0.375l-1.25,1l-1.125,3.156l-0.781,1.25l-1.375,1.281l-0.625,1.375l-0.125,1.656
	l-1.156,1.125l-0.375,4.063l-1,1.25l-2.402,9.719l0.875,1.125l0.527,1.406l-0.777,1.25l-1.5,1.156l-1.406-0.25l-0.875-1.406
	l-1.125,0.5l1,1.031l0.125,1.375l-2.969,2.031l0.313,7.938l1.906,3.781l0.375,1.781l-0.25,3.652l-1.406,1.406l0.125,5.406
	l3.031,3.156l-0.875,2.902l-3.656,0.125l-1.25,1.031l-2.155,4.156l-1.278,0.625l-3.781,0.125l-0.875,1.156l-1.375,0.75v1.902
	l-0.781,1.25v1.906l-2,2.875l-1.405,4.938l-1,1.375l-0.875,5.688l-1.153,1.656l-0.25,1.625l-1.125,0.78l-1.031,1.125l-1,2.904
	l-1,1.625l-1.281,5.063l-0.75,0.875l-0.5,1.529v1.875l-3.279,3.438l-0.5,1.375l-1.779,0.125l-1.125,1l-0.875,1.531l-0.656,0.25
	l-0.25,3.154l-3.406,7.438l-2.155,2.031l-2.125,4.404l-0.625,3.154l-1.153,1.031l-1.5,0.375l-2.406,2.531l-0.125,3.029l-3.156-0.779
	l-1.404,0.529l-3.404,0.5l-5.813,4.779l-0.75,1.156l-0.25,1.625l0.625,1.28l1.781,2l0.375,1.28h-1.906l-0.75,1.25l0.625,1.25
	l1.281,0.654l1,1.125l-0.375,1.781l1.125,2.75l-0.5,1.655l-2.125,1.905l-1.656,0.25l-1.375,1.375l-1.279,7.97l-2.154,2l-2.75,1.155
	l-1.156,1l-0.75,1.25l-2.53,2.029l-0.75,1.125l-1.125,0.781l-1.531,0.625l-3.778,4.529l-2.656,1.531l-1.53,0.375l-1,0.875
	l-1.375,0.625l-1.904,0.279l-1,1l-1.78,0.125l-0.875,1.125l-2.406,1.406l-1,1l-2.655,1.25l-0.375,1.529l-1,1.25l-1.78,0.125
	l-1.125,1.031l-4.063,1.75l-1.125,1.029l-1.655,2.625l-0.875,3.155l-1.125,1.28l-0.25,1.625l-0.905,1.156l-0.125,1.75l-0.75,1.529
	l0.125,1.75l-0.188,0.596l-0.188,5.219l-0.75,1.47l-0.063,1.375l-1.969,2.845l-3.531,3.155l-0.875,1.28l-1.655,0.875l-0.75,1.25
	l-0.25,1.656l-0.875,1.25l-0.125,1.779l-0.654,1.625v1.905l-1.25,0.75v2.53l-2.905,6.813v1.905l-0.875,0.875v3.78l-2.155,4.188
	l0.125,2.125l-1.25,1.655l-0.531,3.53l-0.875,1.125l-0.25,3.531l-1,1.279l-0.375,1.75l-1.905,2.529l-0.5,1.406l-0.875,1.125
	l-3.563,10.094l-0.875,1.281l-0.5,5.031l-2.53,2.529l-2.905,9.096v3.529l-0.625,1.404l0.25,5.406l1.28,1.656v7.813l0.875,3.156
	l0.089,4.646l-3.503,1.175l-2.021,1.769l-3.281,1.264l-2.778-4.799l-3.028-0.758h-4.041l-1.265-2.777l-2.774-1.011l-2.272-1.516
	l-4.293,0.252l-0.505-2.271l0.758-3.281l1.77-1.012l-2.776-1.011l-1.011-2.525l-4.799-2.773l1.77-2.273l2.523-1.263l-0.254-7.576
	l-2.522-1.516l-1.265-2.524h-2.776l-3.787-4.041l-3.536-1.769l4.799-14.646l6.565-1.01l1.263-2.778l-0.758-3.281l-2.777-2.021
	l-2.522-5.305l-4.041-2.524l-0.252-3.029l-1.013-3.028l4.294-3.283v-3.788l-4.04-8.08l-0.506-4.294l-1.77-1.011l-1.011-3.03
	l0.505-3.534l2.777-5.052l-1.265-2.777l1.517-2.271l1.012-2.777l-0.253-3.534l1.012-2.523l2.021-2.021l0.76-3.028l1.769-2.021
	l0.253-1.01l4.041-5.559l0.252-3.534l1.77-2.271l0.254-2.522l3.281,0.505l3.534-1.771l6.063-1.263l3.031-6.313l11.108-0.508
	l2.021-2.271l0.252-3.535l1.77-2.021l0.505-9.852l2.021-2.021l-1.012-2.271v-3.788l-1.012-3.281l-2.522-1.265l-3.282-0.252
	l-2.778-2.524l-0.757-1.517l-0.758-3.03v-3.788l0.451-0.972l0.715-6.786l-2.855-3.929l-5.355-0.356l-2.855-8.569l0.355-5
	l-1.43-1.431l-1.785-3.929v-5.356l1.07-4.284l10-12.855l0.715-1.786v-3.929l6.43-4.646l-1.43-4.284l-2.5-2.5l1.785-4.285l3.57-3.931
	l-1.07-22.5l3.215-2.144l2.145-5l3.57-1.786l-1.07-3.929v-3.931l1.43-3.929l-0.355-1.786l-1.07-0.714l2.855-3.571l3.569-1.429
	l6.786-5.716l5-6.429h3.93l7.855-2.146l2.855-2.854l8.371-3.572l0.915,2.521l3.787,4.799l-0.252,3.787l3.788,9.094l0.758,0.758
	l1.265,2.522h4.294l5.304,3.283l3.535,0.253l3.535,4.04l1.264,2.524l2.776,1.264h1.011l0.506-1.264l5.305-2.524l5.052,3.283
	l1.77,2.271l1.264,2.776v4.293l3.788,5.305v2.776l2.523,1.517l3.03,1.012l1.769,2.271l1.012,0.759l4.545,0.252l2.021,1.771
	l1.77,3.282l0.253,3.536l2.021,0.252l2.524-1.771l9.85-1.516l1.012-2.777v-11.363l-0.759-3.533l1.011-2.777l4.293-3.535l3.03-5.81
	l0.253-2.777l1.517-2.775v-3.787l2.271-1.771l1.517-6.062l1.265-2.524l2.271-1.517l1.77-2.271l0.506-8.839l12.122-18.438v-0.252
	l-3.282-1.769l-2.021-2.272l-0.507-4.547l0.253-0.252l7.323-13.132l4.294-3.536l2.776-1.01h3.788l3.028,0.758l2.272,1.771
	L675.238,655.014L675.238,655.014L675.238,655.014z"/>
<path id="Tainan_City" sodipodi:nodetypes="cccccccccccccccccccccccccccccccccccccccccccccccccccccccccccccccccccccccccccccccccccccccccccccccccccccccccccccccccccccccccccccccccccccccccccccccccccccccccccccccccccccccccccccccccccccccccccccccccccccccccccc" fill="#EEFFAA" d="
	M357.563,660.344l-0.25,0.5l-2.281,1.5l-3.281,0.25l-2-2l-3.281,0.5l-5.313,2.531h-7.594l-6.031,3.529l-0.281,0.25l-1.5,2.531
	l-6.313-0.281l0.25,3.031l-7.063,0.531l-0.531,3.279l-1.25,2.5l-1.781,1.531l-2.5-1.531l-2.031,2.031l1,2.781l-0.5,1.781
	l-9.594,4.781l-0.75,3.029l-3.281,4.813l-3.031,1.25l-4.563-1.25l-1.25-2.031v2.781l-2.531-0.25l-2.281-2.031l-1-3.031l-3.781-0.75
	l-2.75-1.813l-0.781-0.97l-7.188-1.28l-3.906,6.813l0.625,1.281l1,0.125l-0.625,1.875l-1.281,0.906l-0.25,1.75l2.781,1.655
	l1.156,0.25l1.625-0.5l-2.156,3.155l-3.406,1.25l-0.875,1.281l0.25,1.75l0.75,1.531l-2.5,2.375L255.031,716l-0.75,1.375
	l-2.406-0.625l-0.625,1.279l-0.75,3.406l0.125,3.781l-4.938,9.219l-0.5,3.531l-1.5,2.529l1.125-1.404l1.531-0.625l1.5-0.125
	l0.625,7.969l1.156,0.875l1.5,0.625l-0.875,5.313l-3.281,1.375h-0.25l-3.531,1.155l-3.156,2.906l-3.281,1.5l-0.25,3.531l0.25,0.5
	l0.25,3.688l0.75,0.875h1.906l-0.125,5.938l0.75,2.406l2.125,2.5l0.281,0.779l1.875-0.654l1.281-0.875l1.031-1.063l0.344,1.563
	l-0.25,1.779l4.656,2.781l0.906,0.25l1.75,1.625l3.156,1.656l3.938,4.154l1.5,0.75l5.313,4.938l0.125,0.5l3.406,3.281l2.406,3.655
	l1.625-0.375l2.281-2.125l1.375-0.78l-1,2.155l-0.875,1.125v1.28l3.281,0.875l-1.656,1.406l-1.875-0.125l-1.031-1.406l-0.875-0.5
	l0.75,1.906l1.156,1.5l0.5,1.656l-0.5,9.594l-0.531,1.375l1,2.031l1.281-0.75l2.031-2.031l1.531-0.563l0.063-0.03l8.5,3.125
	l2.531-1.281l1.75,1.031l3.781,4.03h3.531l0.531-0.75l2.781,1.25l2,0.25l1.531-2.03l17.938,4.063l3.781-0.25l6.313-5.813l1.75-2.531
	l3.031-1l3.531-0.25l2.531,1.5h3.031l1.531-6.313l1.5-0.75l1.031-1.28l0.5-3.281l3.781-8.844l3.031-0.75l1-3.031l0.25-3.531
	l5.563-0.25l0.25-3.53l9.094-6.563l3.531-5.563l10.375-7.063l2.25-2.531l3.781-2.279l0.531-3.031l0.25-0.25l1.25-0.75l0.5-3.531
	l1.281-2.531l0.25-3.531l5.563-6.813l1.75-0.25l8.094-10.875l0.25-3.781l4.031-5.063l0.75-3.031l-2.25-1.75l-0.281-0.5l-1,0.75
	l-2.531-1.25l-6.313,1.25l-3.031-1l-3.531-2.531l-3.781,5.563l-3.031,0.75l-3.281-0.25l-4.281-3.031l-6.063-1.781l-1.031-2.5
	l3.281-4.813l-0.75-2.531l-2-3.281l-0.531-2.53l1.281-2.5l-1.031-2.78l-0.25-3.531l1.531-2.781l2.281-1.78l0.25-3.03l-1.031-2.781
	l-3.531-0.25l-3.781-1.25l-1-2.281l2.5-1.75l-0.25-3.28l-7.813-0.53v-3.281l2.531-1.75l1.5-2.281l-2.031-1.78l-2.25,1.28
	l-3.031-0.75l-2.531-2.03l-3.281-1l-1.781-2.28L357.563,660.344L357.563,660.344z M291.656,770.438l6.313,2.75v0.03L291.656,770.438
	L291.656,770.438z"/>
<path id="Kaohsiung_City" sodipodi:nodetypes="cccccccccccccccccccccccccccccccccccccccccccccccccccccccccccccccccccccccccccccccccccccccccccccccccccccccccccccccccccccccccccccccccccccccccccccccccccccccccccccccccccccccccccccccccccccccccccccccccccccccccccccccccccccccccccccccccccccccccccccccccccccccccccccccccccccccc" fill="#EEFFAA" d="
	M333.31,955.419l6.838,5.558l1.75,0.75l2.781,2.53l5.438,1.625l0.25-0.625l-0.875-14.53l0.875-2.906l0.875-1.125l1.845,0.441
	l2.462-2.206l2.021-5.813l0.252-3.532l1.769-6.063v-3.788l-3.535-4.293l0.253-18.183l2.021-6.063l1.769-2.271l1.768-6.818
	l-0.252-4.546l0.757-1.264l-0.252-15.151l1.263-2.777l0.505-3.28l1.264-2.524l1.516-9.85l2.525-1.266l1.768,0.759l4.545,0.254
	l1.517,2.271h3.788l2.777-1.263l6.062,1.515l3.535-0.252l2.272-1.771l2.525-3.28l0.252-1.265l4.041-3.281l1.263-0.506l6.566-4.547
	l3.534-0.255l2.778-2.021l3.03-0.757l3.027,1.263l1.771,2.021v3.788l2.778,1.265h2.773l1.014-1.012l3.027-0.76l3.283-4.798
	l3.03-0.758h3.788l8.586,5.304l6.313,7.576l2.778,1.517l2.774-1.517l1.771-2.271l5.051-2.524l1.518-2.271h3.281l1.013,0.253
	l2.521,1.264l0.253,1.263l2.272-0.757l4.496,3.033l0.711-6.751l-2.856-3.93l-5.354-0.355l-2.857-8.571l0.357-5l-1.432-1.429
	l-1.783-3.929v-5.357l1.068-4.285l10-12.854l0.715-1.786v-3.929l6.432-4.646l-1.432-4.285l-2.5-2.5l1.785-4.286l3.571-3.929
	l-1.071-22.5l3.215-2.143l2.146-5l3.571-1.786l-1.071-3.93v-3.931l1.429-3.929l-0.355-1.786l-1.069-0.714l2.854-3.571l3.57-1.429
	l6.786-5.716l5-6.431h3.929l7.856-2.144l2.854-2.856l8.494-3.563l0.792-3.042l-0.252-3.536L526.269,678.5l-3.028-0.761l1.01-3.533
	l1.771-2.523l3.28-1.011l-0.505-2.272l1.52-2.271l3.279-0.509l1.519-2.271v-7.071l-2.272-1.515l-0.6-1.748l-0.916-0.271
	l-1.264-6.313l-2.524-1.77h-0.505l-9.854-2.776l-1.01,0.253l-2.521,1.263l-6.565,1.013l-2.272,1.517l-6.313,1.263l-4.293,3.535
	l-1.517,2.525l-2.776,1.263l-2.273,1.769l-3.278,0.507l-2.273,2.522l-1.768,4.294l-1.771,1.518l-1.011,2.775l-1.771,2.021
	l-0.252,3.534l-2.774,1.011h-3.788l-2.021,2.021l-1.515,2.525l-4.041,4.041l-7.071,0.505l-2.271,5.811l-5.053,2.523l-1.012,2.777
	l-6.563,0.505l-1.267,6.563l-8.081-0.253l-2.271-2.021l-7.828-0.253l-1.263,11.617l1.263,2.773l2.021,2.525v3.788L420.877,721l0,0
	l0.336,0.437l2.272,1.771l-0.761,3.028l-4.04,5.052l-0.253,3.788l-8.081,10.857l-1.769,0.253l-5.556,6.818l-0.253,3.533
	l-1.264,2.524l-0.505,3.534l-1.263,0.759l-0.253,0.253l-0.505,3.029l-16.415,11.869l-3.535,5.557l-9.092,6.565l-0.252,3.533
	l-5.557,0.255l-0.253,3.533l-1.011,3.03l-3.03,0.758l-3.788,8.839l-0.505,3.283l-1.01,1.264l-1.516,0.759l-1.516,6.313h-3.03
	l-2.525-1.517l-3.535,0.253l-3.03,1.011l-8.081,8.334l-3.787,0.253l-10.103-3.282l-7.829-0.759l-1.516,2.021l-2.021-0.253
	l-2.777-1.265l-0.505,0.759h-3.535l-3.788-4.041l-1.768-1.012l-2.525,1.266l-8.447-3.188l-1.653,0.662l-3.23,3.006l1.203,1.405
	l0.75,4.188l3.031,6.313v1.875h0.655l0.25-1.625l0.625-1.28l1.906-0.125l2.125,5.063l-0.25,1.625l-1.875,0.25l-1.406-0.875
	l-0.75-1.25l-0.375,0.875l0.125,1.779l0.75,2.25l0.125,1.78l1.781,3.405v1.375l8.938,21.095l0.155,1.78l1.5,3.406l1.375,1.75
	l3.108,6.604l1.713,3.778l4.53,5.563l-2.125,2.5l-3.905-3.904l2.5,6.063l-4.031,3.905l-0.25,4.188l-0.5,1.625l0.5,1.781l2.781,2.53
	l0.875,1.375v1.905l0.875,1l-0.125,1.905l-1.125,0.75l0.75,1.125l1.53,0.75l1.25,3.438l2.656,2.625l0.625,1.405l1.281,1.75
	l1.125,0.779l1,1.125l0.656,1.375l1,1.031l2.78,4.53l-2.655,0.5l-0.5,0.655v0.625l1.625,0.375l3.28-0.125l0.625,0.125l3.313,3.53
	l1.375,0.75l2.281,2.53l0.625,1.405l3.905,3.28l1.507,0.757"/>
<path id="Chiayi_City" sodipodi:nodetypes="cssssssssssssssssssssssssssssssssssc" fill="#EEFFAA" d="M343.327,632.579
	l0.505,3.283l3.03,3.03l-2.02,4.546l10.102,1.517l1.01,2.776l2.021,2.775l2.524,1.265l2.525-1.517l1.263-2.523l4.546-3.536
	l2.021,1.77l4.546,1.518l0.758-2.523l3.535-4.295l-2.021-2.021l-0.758-3.029l-3.029-0.759l-1.264-2.522l-2.272-1.518l-2.777,1.011
	l-2.021-1.769l-1.769-2.524l-2.524-1.264l-3.031,0.759l-7.07,5.052l-3.031-0.759L343.327,632.579L343.327,632.579L343.327,632.579z"
	/>
<path id="path3219" fill="#EEFFAA" d="M60.059,1067.781l1.114-0.696l1.299,0.049l1.995,1.207l2.228,0.51l0.881,0.882l1.114,2.272
	l-2.181-0.14l-2.97-0.882l-2.831-0.928l-1.392-0.931l1.16-0.093l2.088,1.253l2.831-0.418l-0.604-0.974l-2.784-0.465l-0.696-0.371
	l-1.346,0.232L60.059,1067.781L60.059,1067.781z"/>
<path id="path3221" fill="#EEFFAA" d="M61.711,1129.571l3.002-0.965l1.823-0.161l0.027,0.646l-2.788,1.555l-2.332-0.188
	L61.711,1129.571L61.711,1129.571z"/>
<path id="Kinmen_County" fill="#EEFFAA" d="M90.291,329.254l0.184,1.193l-1.471,4.229l-0.645,0.733l-1.194,0.367l-2.665,0.092
	l-0.553,0.921l0.093,1.285l-0.553,0.92l-1.011,0.46l-0.552-0.826l-1.195-0.275l-1.103,0.275l-2.022,2.666l-1.287,0.092l-0.459-1.194
	l-2.574-0.185l-0.644-1.104h0.368l1.011-0.367l0.827-0.825l0.46-1.014l-0.644-0.919l-0.275-1.381l0.919-0.459h1.379l0.827-0.644
	l0.092-1.287l0.46-0.919v-2.759l0.459-1.012l0.92-0.46l2.481,0.365l0.644-0.733l0.827-0.551l0.921-0.088l1.287,0.275l0.919,0.46
	l0.735,0.825L90.291,329.254z M58.024,346.436l-0.644-2.112l-1.654,0.093l0.46,1.104l0.645,0.919l-0.368,0.735l1.379,0.092
	l0.919,0.46l0.827-0.552l-0.185-0.646L58.024,346.436z M53.703,349.011l2.298,0.552l0.734-0.552l-2.388-0.827L53.703,349.011z
	 M156.384,326.944l-0.919-0.46h-1.379l-0.275-0.732l-0.735-0.735l-0.734-3.398v-2.205l1.471-0.921l0.367-1.104l-0.645-0.734
	l-2.021,0.734l-0.92-0.274l-0.459-0.92l-0.552-2.299l0.184-1.193l-0.644-0.553l-0.92-0.46l-0.184-3.397l-5.612-0.273l-0.366-1.287
	l-0.645-0.919v-1.379l-0.644-0.827l0.552-0.644h-1.195l0.092-0.735l-0.919-0.092l-0.734,0.184l-0.368-0.644l-1.563,1.747
	l-0.459-0.92l0.919-0.553l-0.826-0.554l-0.92,0.554l-0.552,0.825l1.012,0.827l0.734,1.013l-0.367,1.104l-1.194,0.184l-1.654,1.195
	l-1.195,0.186l-1.194-0.094l-0.459,0.275l-0.276,0.92l0.46,0.733l0.092,1.286l1.287-1.381l1.011,0.46h1.38l-0.093,0.735h-1.379
	l0.919,0.827l0.46,0.919l-0.827,0.552v1.379l-0.919-0.272l-1.194-1.654l-0.735-0.645l-0.184,0.919l0.552,0.919v0.273l-0.92,1.014
	L129.177,315l-0.552,0.825l-0.92,0.459h-1.379l1.287,1.193l-0.368,0.46l0.553,2.393l-0.275,0.732h-0.552l-1.746,1.38l-0.552,0.92
	l-8.089-1.104l-10.848-7.813l-1.194-0.274l-0.367-0.275l-0.645,0.735l-1.287,0.184l-2.113,2.114l-1.195,0.187l-2.021,3.771
	l2.206,1.286l1.194,0.274l-0.184-0.919l-0.735-0.828l0.919-0.459l2.758,0.094l0.46-1.104l0.919-0.551l0.735,0.827l-0.092,1.746
	l-0.735,0.732l-2.39,0.461l-0.46,1.192v1.839l0.367,0.275l0.734,1.192l0.736,2.393v2.758l0.184,0.734l1.563,0.185l0.644,0.734
	l-0.092,1.286l-1.012,0.366l-0.645-1.745l-0.459,0.919l-2.206,0.274l-0.092,2.298l-0.828,0.646l-4.044,0.093l-0.552-0.46
	l0.092-1.286l-0.827,1.653l-1.104-0.187l-0.276,0.919l1.013,0.735l0.919,0.366l1.653,2.206l1.472,1.193l0.552,1.014l2.666,0.185
	l1.011,0.459l0.552,1.104l1.287,0.46l1.472,0.185l2.021,1.287l0.46-0.828l1.563-0.273l0.367-1.013l0.735-0.645l0.551-2.394
	l3.033-4.316l0.736-0.646l0.643-0.92l0.828-0.644l0.184-0.46l1.194-0.187l0.828-0.552l1.194-0.275l0.734-0.645l0.92-0.46
	l1.286-0.092l2.022-0.827l7.904-0.552l1.472,0.552l1.653,1.379l0.92,0.459h1.379l2.299,0.921l2.39,2.391l-0.092,1.104l-0.645,0.827
	l-0.826,0.553l-0.553,0.185l1.104,0.461h1.379l1.012-0.366l0.827-0.646l1.194-0.273l0.644-0.92l2.298-0.554l0.368-1.011l-0.46-0.827
	l0.276-1.013l0.827-0.366l1.379,0.274l0.644-0.734l0.367-0.827l-1.379-1.652l-0.185-1.014l1.84-1.104l1.011-0.092l0.552,0.552
	l1.011-0.828l-0.366-0.826l0.092-0.919L156.384,326.944z M145.438,303.879l-0.734-0.827l-1.104,0.368l0.459,0.459H145.438
	L145.438,303.879z M150.587,338.717l1.287-0.092l-0.735-0.461L150.587,338.717z M217.173,284.07l-0.536,2.5l1.43,1.43l1.606,0.714
	v-2.679l-1.25-1.43L217.173,284.07z M225.209,288.888l-1.072-0.533l-1.25,2.145l1.786,1.07l1.786-1.25L225.209,288.888z"/>
<path id="Lienchiang_County" fill="#EEFFAA" d="M59.171,197.452h5.963l-1.987,3.181l-4.373-0.396L59.171,197.452L59.171,197.452z
	 M74.277,199.44l-3.976,9.54l1.59-0.396l7.553-5.167l-3.975-1.59L74.277,199.44L74.277,199.44z M54.402,130.276l-0.396,4.373
	l0.795,4.771l-0.795,2.782l6.359,0.795l4.771-1.192l6.359-5.167l-2.782-3.575l-3.18,2.78l-4.372,0.795l-2.387-3.181L54.402,130.276
	L54.402,130.276L54.402,130.276z M73.879,132.66l1.192,2.386L73.879,132.66L73.879,132.66z M72.29,114.774l0.396,9.54l0.795-4.373
	l3.181-1.986l4.77-0.396l3.578-2.388l2.782,3.183l0.795-1.986l-3.577-5.964L72.29,114.774L72.29,114.774L72.29,114.774z
	 M78.649,94.104l-2.385,4.771l1.7,0.716l1.877-1.511L78.649,94.104L78.649,94.104z M84.611,104.836l-2.782,2.782l3.976-0.796
	L84.611,104.836L84.611,104.836z M249.572,64.093l-0.101,1.49l-0.795,0.896l-0.396,1.189l1.191,0.795l4.074-1.292l1.49-2.188
	l1.192,0.3l1.291-0.396l-0.596-1.097l-1.392-0.496l-1.987-1.789l-1.091-0.196l-0.696,1.688l-0.993,1.191L249.572,64.093
	L249.572,64.093L249.572,64.093z M246.393,59.72l-2.385,2.09l0.199,0.692l4.174,0.299l-0.199-1.189L246.393,59.72L246.393,59.72z"/>
<path fill="#EEFFAA" d="M0,0"/>
<path fill="#EEFFAA" d="M0,0"/>
<path id="Taipei_City" fill="#EEFFAA" d="M723.692,134.908l-6.785-0.357l-2.146,0.536l-1.604,1.07l-5-0.357l-1.785,1.071
	l-1.25,1.965v2.32l1.25,4.104l-0.18,2.146l0.355,2.5l4.82,2.319l-0.18,1.784h-2.855l-2.145,0.896l-10-1.07l-3.75-2.5l-1.07-4.286
	l-2.5-0.179l-2.32-1.607l-1.25-2.143v-2.682l-0.715-1.964l-1.605-1.25l-2.855-1.25l-1.25,0.181l-1.25,1.783l-1.965,1.07l-2.146,0.18
	l-1.068-2.144l-0.535-5.179l0.895-1.967l1.785-1.604l2.678-3.75l-0.178-8.214l-1.43-2.682l-3.57-3.394l-5.715-0.714l-1.785-1.25
	l-0.715-2.32l0.354-2.32l1.785-1.069v-2.681l1.25-1.43l0.357-0.716l1.25-1.25l1.25-2.678l2.318-0.709l0.896-2.321l3.035-3.57
	l1.965-0.894l2.5-0.181l1.604-1.069l0.896-2.322l3.75-2.143l0.893-1.966l1.967-0.896l2.5-3.928l1.43,1.604l1.965,3.57l4.646-0.354
	v2.681l-0.719,1.964v2.68l2.857,2.857l0.178,5.179l1.072,1.606l2.857,2.5l0.533,1.784l-1.43,1.604l-0.535,2.322l7.682,6.604
	l0.533,4.646l-2.318,4.818l-1.072,1.25l1.43,1.432l0.357,1.964l-1.25,1.604l0.893,1.967l4.82,3.568l3.93,1.786l2.32-0.716
	l1.604,0.716L723.692,134.908z"/>
<path id="New_Taipei_City" fill="#EEFFAA" d="M824.442,135.809l-1.406,0.125l-1.125,1.03l-1.156-2.155l-1.375-0.5l-0.875-1
	l-1.469-0.343l-1.814,0.062l-0.84,0.849l-1.689,1.062l-4.029-0.375l-4.938-4.03l-0.375-1.404v-5.688l-0.625-0.75l1.375-1
	l-0.25-0.625l-4.152-4.188l-1.281-3.031l1.531-4.53l1.5-1.029l0.375-1.5l-0.625-1.25l-1-0.905l-0.625-0.875l0.75-1.25l1.25-0.781
	V99.85l-1.75-0.125l-1.656,0.375l-1,1l-3.406,1.156h-1.906l-5.938-1.281l-1.5,0.625l-1.406-0.625l-4.406-0.125l-2.902-0.875
	l-1.375,0.75l-1.281,1.25h-1.625l-1.031-1.25l0.375-1.625l0.781-1.28l0.625-0.625h-1.906l-1.625,0.625l-1.811-0.001l0.02,1.156
	l-0.893,2.146l-1.431,1.43l-1.784,2.854l-0.896-0.18l-1.785-1.25l-2.5-0.534l-2.854,3.034l-2.322,0.536l0.537,2.144v4.82
	l4.644,4.466l-0.716,2.146l-1.069,1.785l-2.5,0.18l-4.646,2.32l-5.178-0.356l-5.357-4.644l-6.965-1.785l-1.606-1.785v-1.965
	l-1.429,1.25l-2.321-0.535l-1.604-2.146l-2.322-1.604l-3.035-6.786l-0.18-2.5l-1.428-1.605l-2.322-0.715l-1.07-1.965v-2.679
	l4.82-0.536l1.787-1.25l1.963-0.714l2.5-0.18l4.107-1.785l1.25-1.607l2.318-0.534l1.07-1.604l1.965-0.715l1.484-1.112l-2.912-2.094
	l-1.531-0.5l-1.625-1.125l-0.53-1.28l0.655-1.5l2.906-1.405l-0.281-0.75l-1.125-1l1-1.125l1.406-0.78l1.25-1.125l-0.375-1.125
	l-4.531,3.905l-6.313,0.375l-4.939-5.063l-0.25-1.25l1.25-1.28l-0.625-1.25h-2l-1.406-0.625l-2.027-2.03l0.527-3.779l-0.375-1.781
	l-0.652-1.25l-1.125-1l-3.656-5.188l-3.156-1l-1.781-2.279l-1.375-0.75h-1.902l-1.375-0.906l-1.031-1.125l-1.25-0.75l-0.438-0.094
	l-1.345,0.219l-1,1.125l-0.5,1.531h-6.063l-1.906-2.031l-1.125,0.75v1.908l-1.125,0.75l-5.064,0.75l-0.625-1.625l-0.625,0.625
	l-0.25,1.779l-1.402,1.125l-3.406,0.875l-1.375,1.03l-1.656,0.5l-3.53,7.438l-0.625,0.125l-3.688-0.5l-1.25,1l-0.125,1.779l-1,1.125
	l-0.375,1.53l-1.281,2.53l-0.25,1.875l-0.875,1.28l-1.279,0.75l-2.125,2.155l-0.25,1.875l-2.029,3.905l-1.906,0.53l-1.125-0.125
	l0.25,1.125l3.406,3.154l1.904,0.125l3.529,1.655l1.5,2.625l1.406,1.031l1,1.25l2.156,4.438l0.25,7.563l-0.875,0.75l-0.25-1.625
	l-0.781-1.655l-0.25-1.625l-2-2.656l-0.125-1.779l-0.656-1.75l-2.25-2.28l-5.813-3.78H648.8l-1.125,1l-0.625,2.405l-3.688,3.53
	l-1.625,0.5l-2.779,1.654l-1.5,0.375l-4.189,2.781l-5.153,1.625l-1.279,0.875l-12,0.125l-2.406,2.28l-0.957,1.396l1.813,2.484
	l1.25,0.356l1.25,1.604l5,0.536l9.287,4.464l-0.537,3.572l1.968,1.784l5.178,1.25h5.355l1.25,0.894l1.784,2.146l0.536,2.319v0.714
	l-0.895,1.786l0.354,2.32l1.25,1.43l2.322,1.606l-0.893,1.604l-1.969,1.25l-1.965,0.715l2.146,1.605l0.18,2.145l-1.606,1.071
	l-2.144,0.714l-1.965,3.57l-2.857,1.966l-11.249-0.355l-1.787,0.894l-0.531,2.146l1.068,1.964l-0.537,5l-1.428,1.43l-0.893,1.965
	l1.25,2.321l2.143,0.179l1.607,1.25l-2.146,1.43l-1.25,1.431l-0.893,1.965l0.893,4.285l4.463,2.679l3.396,5.18l-1.25,1.606
	l0.354,2.144l0.182,0.181l2.5,1.604l-1.605,1.25l-4.644,0.896l-0.184,2.144l2.5,0.356l1.608-1.25l1.607,1.604l1.781,1.071
	l2.857,0.714l2.678-0.179l1.965-1.071l5.357-0.354l1.25,0.715l0.354,0.894l1.432,1.431l0.715,1.965l2.854,2.854l1.607,0.896
	l1.605,1.785l0.18,2.5l0.893,2.5l2.322,0.715v2.68l-1.605,1.07l-1.07,1.604l-3.215,2.681l-1.07,1.965l0.355,2.319l0.895,1.785v1.071
	l1.965,5l3.213,3.035l-0.535,1.965l2.5,1.07l0.182,1.784l2.5,0.716l1.43,1.965l1.965,1.43l0.535,5l1.478,0.619l4.772,0.271
	l2.32-1.43l4.645-0.714l5.179-3.396l0.534-2.5l5.896-3.214l2.68-0.18l2.146-0.714l1.068-1.606l1.605-1.25l2.318-0.354l1.432-4.285
	v-2.68l-0.713-2.146l-1.434-1.429l-0.354-2.5l1.965-1.606l0.356-2.319l-0.181-2.5l0.896-1.967l2.143-0.533l1.785-1.07l2.5,0.714
	l2.322-1.785l0.531-2.144l-1.428-1.25l10.535-1.25l3.57-1.785l1.604,1.785l0.715-1.965l2.146-0.717l1.072-1.783l1.783-1.606
	l0.533-1.695l4.822-2.59l2.678-3.215l1.967-1.07l2.32-0.354l7.5,1.07l1.785-0.896l2.5-0.535l-0.18-1.25l0.18-2.144l1.428-1.785
	l0.184-2.146l-0.537-2.318l2.5-3.215l3.037-2.5l2.316-0.356l5.357,0.356l5.893-3.931l1.434-4.286l-4.107-5.894l0.893-1.785
	l0.535-2.144l1.787-1.432l5.178,0.356l2.322,0.894h2.855l1.43-1.604l6.785-4.821l5.356-0.354l6.25-2.32l2.5-0.18l3.704,0.689h0.003
	l1.118-0.502l0.775-1.536l1.756-0.12l0.75-1.125l2.781-1.278l0.773-1.317l1.881-0.183l0.688-1.438l0.063-1.468L824.442,135.809z
	 M723.604,134.908l-6.785-0.357l-2.146,0.536l-1.604,1.07l-5-0.357l-1.785,1.071l-1.25,1.965v2.32l1.25,4.104l-0.18,2.146l0.355,2.5
	l4.82,2.319l-0.182,1.784h-2.854l-2.146,0.896l-10-1.07l-3.75-2.5l-1.068-4.286l-2.5-0.179l-2.32-1.607l-1.25-2.143v-2.682
	l-0.715-1.964l-1.607-1.25l-2.854-1.25l-1.25,0.181l-1.25,1.783l-1.965,1.07l-2.146,0.18l-1.068-2.144l-0.535-5.179l0.895-1.967
	l1.785-1.604l2.678-3.75l-0.178-8.214l-1.43-2.682l-3.57-3.394l-5.715-0.714l-1.785-1.25l-0.715-2.32l0.354-2.32l1.785-1.069v-2.681
	l1.25-1.43l0.357-0.716l1.25-1.25l1.25-2.678l2.318-0.709l0.896-2.321l3.035-3.57l1.965-0.894l2.5-0.181l1.604-1.069l0.896-2.322
	l3.75-2.143l0.893-1.966l1.967-0.896l2.5-3.928l1.43,1.604l1.965,3.57l4.645-0.354v2.681l-0.717,1.964v2.68l2.857,2.857l0.178,5.179
	l1.072,1.606l2.855,2.5l0.535,1.784l-1.43,1.604l-0.535,2.322l7.68,6.604l0.535,4.646l-2.318,4.818l-1.072,1.25l1.43,1.432
	l0.357,1.964l-1.25,1.604l0.893,1.967l4.82,3.568l3.93,1.786l2.32-0.716l1.604,0.716L723.604,134.908z"/>
<path id="Chiayi_County" fill="#EEFFAA" d="M508.782,641.991l-2.775-1.011l-11.11-1.013l-5.558,2.271l-11.362-1.263
	l-2.021-2.272l-2.521-5.809l-0.506-7.323l-2.272-2.021l-1.515-2.522v-3.788l2.773-2.272l0.76-3.279l-0.254-8.589l-1.263-2.523
	l-3.282-0.758h-3.788l-11.614-4.293l-6.439,0.632l-1.642,2.396l1.516,2.272l0.757,3.03v3.532l-1.263,2.525l-3.535-0.506
	l-2.777-1.515l-3.532-0.253l-2.778,1.01l-3.03,0.253l-2.021-2.021l-3.282,0.761l-2.021,2.021l-2.021-3.283l0.505-3.788l-5.556-0.253
	l-1.77,2.021l-2.777,1.517l-13.891-1.517l-3.029-1.011l-2.271-1.771l-3.536-0.253l-2.524-1.516l-1.516-2.271l-4.293-3.535
	l-1.516-5.052l-5.051-1.263l-5.305,2.774h-7.576l-5.808,2.272l-2.778-1.011l-2.271-1.771l-2.778-1.264l-1.768,2.271l-2.272,1.771
	l-1.011,2.776l-5.809,1.769l-1.011,3.031l-2.524,1.263l-4.041-0.253l-1.516,2.524l-1.768,6.062l-2.778-1.515l-6.313,2.522
	l-1.769,2.021l-0.758,3.534l-4.798,2.775l-1.011,2.777l-3.535-1.263v-3.283h-3.283l-2.021,2.021l0.758,3.03l-0.252,3.536
	l-1.768,2.271l-2.273,1.771l-3.788-0.505l-6.313-2.272l-2.777,1.264h-3.788l-1.516-2.271h-3.788l-5.81-2.271l-3.854-0.132
	l-1.566,0.872l-0.375,9.097l0.875,1.528l1.75,0.625l5.688-0.375l1.405,0.625v1.906l-0.78,1.375l-0.5,1.781l-0.875,1.125v2.03
	l-0.75,1.5l0.375,2.028l1.625,0.875h1.655l-2.155,4.188l-0.125,1.75l1.53,0.375v1.655l-1.03,3.153l0.125,1.875l0.78,1.531l1.25,1
	l1.406-1.25l0.625,0.875l0.25,3.531l-1,1.655l-1.281,5.028l-3.655,1.531l-1.406-0.125l-3,6.938l-0.156,5.063l0.406,1.5h3.781
	l1.625,0.625l0.2,1.654l2.707,1.778l3.788,0.759l1.011,3.029l2.271,2.021l2.525,0.254v-2.762l1.263,2.021l4.546,1.263l3.03-1.263
	l3.283-4.801l0.758-3.028l9.596-4.798l0.505-1.771l-1.01-2.778l2.021-2.021l2.524,1.517l1.769-1.517l1.263-2.524l0.505-3.281
	l7.071-0.507l-0.252-3.027l6.313,0.253l1.517-2.524l0.253-0.253l6.062-3.535h7.576l5.304-2.523l3.282-0.506l2.021,2.021l3.283-0.252
	l2.272-1.518l0.253-0.506l3.788,1.012l1.768,2.271l3.283,1.011l2.525,2.021l3.029,0.758l2.272-1.264l2.021,1.769l-1.515,2.271
	l-2.525,1.769v3.283l7.828,0.505l0.253,3.283l-2.524,1.769l1.01,2.272l3.788,1.263l3.536,0.253l1.01,2.777l-0.253,3.029
	l-2.272,1.769l-1.516,2.777l0.253,3.535l1.01,2.775l-1.263,2.524l0.506,2.525l2.021,3.281l0.758,2.523l-3.283,4.799l1.011,2.524
	l6.063,1.769l4.293,3.029l3.282,0.253l3.029-0.758l3.788-5.558l3.536,2.523l3.03,1.011l6.313-1.264l2.525,1.264l2.021-1.769v-3.788
	l-2.021-2.524l-1.264-2.774l1.264-11.617l7.827,0.253l2.271,2.021l8.081,0.253l1.264-6.565l6.565-0.505l1.01-2.776l5.053-2.522
	l2.271-5.812l7.07-0.506l4.041-4.041l1.516-2.523l2.021-2.021h3.787l2.777-1.01l0.252-3.535l1.771-2.021l1.012-2.775l1.768-1.518
	l1.771-4.294l2.271-2.522l3.282-0.507l2.273-1.769l2.773-1.264l1.52-2.524l4.293-3.535l6.313-1.264l2.273-1.516l6.563-1.013
	l2.525-1.263l1.216-0.284L508.782,641.991z M376.106,645.29l-0.758,2.523l-4.546-1.518l-2.021-1.77l-4.546,3.536l-1.263,2.523
	l-2.525,1.517l-2.524-1.265l-2.021-2.775l-1.01-2.776l-10.102-1.517l2.02-4.546l-3.03-3.03l-0.505-3.283l4.799-1.258l3.031,0.759
	l7.07-5.052l3.031-0.759l2.524,1.264l1.769,2.524l2.021,1.769l2.777-1.011l2.272,1.518l1.264,2.522l3.029,0.759l0.758,3.029
	l2.021,2.021L376.106,645.29z"/>
</svg>
